<?xml version="1.0" encoding="UTF-8" standalone="no"?>
<!DOCTYPE svg PUBLIC "-//W3C//DTD SVG 1.1//EN"
 "http://www.w3.org/Graphics/SVG/1.1/DTD/svg11.dtd">
<!-- Generated by graphviz version 2.40.1 (20161225.0304)
 -->
<!-- Title: %3 Pages: 1 -->
<svg width="247pt" height="83pt"
 viewBox="0.00 0.00 247.00 83.00" xmlns="http://www.w3.org/2000/svg" xmlns:xlink="http://www.w3.org/1999/xlink">
<g id="graph0" class="graph" transform="scale(1 1) rotate(0) translate(4 79)">
<title>%3</title>
<polygon fill="#ffffff" stroke="transparent" points="-4,4 -4,-79 243,-79 243,4 -4,4"/>
<!-- 6 -->
<g id="node1" class="node">
<title>6</title>
<ellipse fill="none" stroke="#000000" cx="229.5" cy="-27.5" rx="9.5" ry="9.5"/>
<text text-anchor="middle" x="229.5" y="-23.8" font-family="Times,serif" font-size="14.00" fill="#000000">6</text>
</g>
<!-- 5 -->
<g id="node2" class="node">
<title>5</title>
<ellipse fill="none" stroke="#000000" cx="174.5" cy="-9.5" rx="9.5" ry="9.5"/>
<text text-anchor="middle" x="174.5" y="-5.8" font-family="Times,serif" font-size="14.00" fill="#000000">5</text>
</g>
<!-- 5&#45;&gt;6 -->
<g id="edge1" class="edge">
<title>5&#45;&gt;6</title>
<path fill="none" stroke="#000000" stroke-width=".75" d="M183.5821,-12.4723C192.2081,-15.2954 205.3086,-19.5828 215.3119,-22.8566"/>
<polygon fill="#000000" stroke="#000000" stroke-width=".75" points="214.9242,-24.571 220.2205,-24.4631 216.0129,-21.2446 214.9242,-24.571"/>
</g>
<!-- 4 -->
<g id="node3" class="node">
<title>4</title>
<ellipse fill="none" stroke="#000000" cx="174.5" cy="-46.5" rx="9.5" ry="9.5"/>
<text text-anchor="middle" x="174.5" y="-42.8" font-family="Times,serif" font-size="14.00" fill="#000000">4</text>
</g>
<!-- 4&#45;&gt;6 -->
<g id="edge2" class="edge">
<title>4&#45;&gt;6</title>
<path fill="none" stroke="#000000" stroke-width=".75" d="M183.5821,-43.3625C192.2081,-40.3827 205.3086,-35.857 215.3119,-32.4014"/>
<polygon fill="#000000" stroke="#000000" stroke-width=".75" points="216.066,-33.9924 220.2205,-30.7056 214.9232,-30.6842 216.066,-33.9924"/>
</g>
<!-- 3 -->
<g id="node4" class="node">
<title>3</title>
<ellipse fill="none" stroke="#000000" cx="119.5" cy="-9.5" rx="9.5" ry="9.5"/>
<text text-anchor="middle" x="119.5" y="-5.8" font-family="Times,serif" font-size="14.00" fill="#000000">3</text>
</g>
<!-- 3&#45;&gt;5 -->
<g id="edge3" class="edge">
<title>3&#45;&gt;5</title>
<path fill="none" stroke="#000000" stroke-width=".75" d="M129.0803,-9.5C137.494,-9.5 149.8715,-9.5 159.5814,-9.5"/>
<polygon fill="#000000" stroke="#000000" stroke-width=".75" points="159.6592,-11.2501 164.6592,-9.5 159.6591,-7.7501 159.6592,-11.2501"/>
</g>
<!-- 2 -->
<g id="node5" class="node">
<title>2</title>
<ellipse fill="none" stroke="#000000" cx="119.5" cy="-46.5" rx="9.5" ry="9.5"/>
<text text-anchor="middle" x="119.5" y="-42.8" font-family="Times,serif" font-size="14.00" fill="#000000">2</text>
</g>
<!-- 2&#45;&gt;4 -->
<g id="edge4" class="edge">
<title>2&#45;&gt;4</title>
<path fill="none" stroke="#000000" stroke-width=".75" d="M129.0803,-46.5C137.494,-46.5 149.8715,-46.5 159.5814,-46.5"/>
<polygon fill="#000000" stroke="#000000" stroke-width=".75" points="159.6592,-48.2501 164.6592,-46.5 159.6591,-44.7501 159.6592,-48.2501"/>
</g>
<!-- 1 -->
<g id="node6" class="node">
<title>1</title>
<ellipse fill="none" stroke="#000000" cx="64.5" cy="-46.5" rx="9.5" ry="9.5"/>
<text text-anchor="middle" x="64.5" y="-42.8" font-family="Times,serif" font-size="14.00" fill="#000000">1</text>
</g>
<!-- 1&#45;&gt;3 -->
<g id="edge5" class="edge">
<title>1&#45;&gt;3</title>
<path fill="none" stroke="#000000" stroke-width=".75" d="M72.6154,-41.0405C81.7143,-34.9195 96.5735,-24.9233 107.1232,-17.8262"/>
<polygon fill="#000000" stroke="#000000" stroke-width=".75" points="108.1795,-19.2248 111.3513,-14.9819 106.2258,-16.3208 108.1795,-19.2248"/>
</g>
<!-- 1&#45;&gt;2 -->
<g id="edge6" class="edge">
<title>1&#45;&gt;2</title>
<path fill="none" stroke="#000000" stroke-width=".75" d="M74.0803,-46.5C82.494,-46.5 94.8715,-46.5 104.5814,-46.5"/>
<polygon fill="#000000" stroke="#000000" stroke-width=".75" points="104.6592,-48.2501 109.6592,-46.5 104.6591,-44.7501 104.6592,-48.2501"/>
</g>
<!-- 0 -->
<g id="node7" class="node">
<title>0</title>
<ellipse fill="none" stroke="#000000" cx="9.5" cy="-65.5" rx="9.5" ry="9.5"/>
<text text-anchor="middle" x="9.5" y="-61.8" font-family="Times,serif" font-size="14.00" fill="#000000">0</text>
</g>
<!-- 0&#45;&gt;4 -->
<g id="edge7" class="edge">
<title>0&#45;&gt;4</title>
<path fill="none" stroke="#000000" stroke-width=".75" d="M19.2238,-66.6114C39.7433,-68.6972 88.8832,-72.321 129,-64.5 140.397,-62.2781 152.5949,-57.2973 161.4894,-53.1372"/>
<polygon fill="#000000" stroke="#000000" stroke-width=".75" points="162.3197,-54.6798 166.0648,-50.9333 160.8007,-51.5266 162.3197,-54.6798"/>
</g>
<!-- 0&#45;&gt;1 -->
<g id="edge8" class="edge">
<title>0&#45;&gt;1</title>
<path fill="none" stroke="#000000" stroke-width=".75" d="M18.5821,-62.3625C27.2081,-59.3827 40.3086,-54.857 50.3119,-51.4014"/>
<polygon fill="#000000" stroke="#000000" stroke-width=".75" points="51.066,-52.9924 55.2205,-49.7056 49.9232,-49.6842 51.066,-52.9924"/>
</g>
</g>
</svg>
