<?xml version="1.0" encoding="UTF-8" standalone="no"?>
<!DOCTYPE svg PUBLIC "-//W3C//DTD SVG 1.1//EN"
 "http://www.w3.org/Graphics/SVG/1.1/DTD/svg11.dtd">
<!-- Generated by graphviz version 2.40.1 (20161225.0304)
 -->
<!-- Title: %3 Pages: 1 -->
<svg width="302pt" height="65pt"
 viewBox="0.00 0.00 302.00 65.00" xmlns="http://www.w3.org/2000/svg" xmlns:xlink="http://www.w3.org/1999/xlink">
<g id="graph0" class="graph" transform="scale(1 1) rotate(0) translate(4 61)">
<title>%3</title>
<polygon fill="#ffffff" stroke="transparent" points="-4,4 -4,-61 298,-61 298,4 -4,4"/>
<!-- 6 -->
<g id="node1" class="node">
<title>6</title>
<ellipse fill="none" stroke="#000000" cx="284.5" cy="-28.5" rx="9.5" ry="9.5"/>
<text text-anchor="middle" x="284.5" y="-24.8" font-family="Times,serif" font-size="14.00" fill="#000000">6</text>
</g>
<!-- 5 -->
<g id="node2" class="node">
<title>5</title>
<ellipse fill="none" stroke="#000000" cx="229.5" cy="-47.5" rx="9.5" ry="9.5"/>
<text text-anchor="middle" x="229.5" y="-43.8" font-family="Times,serif" font-size="14.00" fill="#000000">5</text>
</g>
<!-- 5&#45;&gt;6 -->
<g id="edge1" class="edge">
<title>5&#45;&gt;6</title>
<path fill="none" stroke="#000000" stroke-width=".75" d="M238.5821,-44.3625C247.2081,-41.3827 260.3086,-36.857 270.3119,-33.4014"/>
<polygon fill="#000000" stroke="#000000" stroke-width=".75" points="271.066,-34.9924 275.2205,-31.7056 269.9232,-31.6842 271.066,-34.9924"/>
</g>
<!-- 4 -->
<g id="node3" class="node">
<title>4</title>
<ellipse fill="none" stroke="#000000" cx="174.5" cy="-9.5" rx="9.5" ry="9.5"/>
<text text-anchor="middle" x="174.5" y="-5.8" font-family="Times,serif" font-size="14.00" fill="#000000">4</text>
</g>
<!-- 4&#45;&gt;6 -->
<g id="edge2" class="edge">
<title>4&#45;&gt;6</title>
<path fill="none" stroke="#000000" stroke-width=".75" d="M183.8785,-11.1199C203.022,-14.4265 246.7238,-21.975 269.7227,-25.9476"/>
<polygon fill="#000000" stroke="#000000" stroke-width=".75" points="269.6067,-27.7034 274.8316,-26.83 270.2025,-24.2544 269.6067,-27.7034"/>
</g>
<!-- 3 -->
<g id="node4" class="node">
<title>3</title>
<ellipse fill="none" stroke="#000000" cx="174.5" cy="-47.5" rx="9.5" ry="9.5"/>
<text text-anchor="middle" x="174.5" y="-43.8" font-family="Times,serif" font-size="14.00" fill="#000000">3</text>
</g>
<!-- 3&#45;&gt;5 -->
<g id="edge3" class="edge">
<title>3&#45;&gt;5</title>
<path fill="none" stroke="#000000" stroke-width=".75" d="M184.0803,-47.5C192.494,-47.5 204.8715,-47.5 214.5814,-47.5"/>
<polygon fill="#000000" stroke="#000000" stroke-width=".75" points="214.6592,-49.2501 219.6592,-47.5 214.6591,-45.7501 214.6592,-49.2501"/>
</g>
<!-- 2 -->
<g id="node5" class="node">
<title>2</title>
<ellipse fill="none" stroke="#000000" cx="119.5" cy="-47.5" rx="9.5" ry="9.5"/>
<text text-anchor="middle" x="119.5" y="-43.8" font-family="Times,serif" font-size="14.00" fill="#000000">2</text>
</g>
<!-- 2&#45;&gt;4 -->
<g id="edge4" class="edge">
<title>2&#45;&gt;4</title>
<path fill="none" stroke="#000000" stroke-width=".75" d="M127.6154,-41.893C136.7143,-35.6065 151.5735,-25.3401 162.1232,-18.0513"/>
<polygon fill="#000000" stroke="#000000" stroke-width=".75" points="163.2324,-19.412 166.3513,-15.13 161.2428,-16.5325 163.2324,-19.412"/>
</g>
<!-- 2&#45;&gt;3 -->
<g id="edge5" class="edge">
<title>2&#45;&gt;3</title>
<path fill="none" stroke="#000000" stroke-width=".75" d="M129.0803,-47.5C137.494,-47.5 149.8715,-47.5 159.5814,-47.5"/>
<polygon fill="#000000" stroke="#000000" stroke-width=".75" points="159.6592,-49.2501 164.6592,-47.5 159.6591,-45.7501 159.6592,-49.2501"/>
</g>
<!-- 1 -->
<g id="node6" class="node">
<title>1</title>
<ellipse fill="none" stroke="#000000" cx="64.5" cy="-9.5" rx="9.5" ry="9.5"/>
<text text-anchor="middle" x="64.5" y="-5.8" font-family="Times,serif" font-size="14.00" fill="#000000">1</text>
</g>
<!-- 1&#45;&gt;4 -->
<g id="edge6" class="edge">
<title>1&#45;&gt;4</title>
<path fill="none" stroke="#000000" stroke-width=".75" d="M74.2618,-9.5C93.6356,-9.5 137.0377,-9.5 159.8505,-9.5"/>
<polygon fill="#000000" stroke="#000000" stroke-width=".75" points="159.9172,-11.2501 164.9172,-9.5 159.9171,-7.7501 159.9172,-11.2501"/>
</g>
<!-- 1&#45;&gt;2 -->
<g id="edge7" class="edge">
<title>1&#45;&gt;2</title>
<path fill="none" stroke="#000000" stroke-width=".75" d="M72.6154,-15.107C81.7143,-21.3935 96.5735,-31.6599 107.1232,-38.9487"/>
<polygon fill="#000000" stroke="#000000" stroke-width=".75" points="106.2428,-40.4675 111.3513,-41.87 108.2324,-37.588 106.2428,-40.4675"/>
</g>
<!-- 0 -->
<g id="node7" class="node">
<title>0</title>
<ellipse fill="none" stroke="#000000" cx="9.5" cy="-28.5" rx="9.5" ry="9.5"/>
<text text-anchor="middle" x="9.5" y="-24.8" font-family="Times,serif" font-size="14.00" fill="#000000">0</text>
</g>
<!-- 0&#45;&gt;2 -->
<g id="edge8" class="edge">
<title>0&#45;&gt;2</title>
<path fill="none" stroke="#000000" stroke-width=".75" d="M18.8785,-30.1199C38.022,-33.4265 81.7238,-40.975 104.7227,-44.9476"/>
<polygon fill="#000000" stroke="#000000" stroke-width=".75" points="104.6067,-46.7034 109.8316,-45.83 105.2025,-43.2544 104.6067,-46.7034"/>
</g>
<!-- 0&#45;&gt;1 -->
<g id="edge9" class="edge">
<title>0&#45;&gt;1</title>
<path fill="none" stroke="#000000" stroke-width=".75" d="M18.5821,-25.3625C27.2081,-22.3827 40.3086,-17.857 50.3119,-14.4014"/>
<polygon fill="#000000" stroke="#000000" stroke-width=".75" points="51.066,-15.9924 55.2205,-12.7056 49.9232,-12.6842 51.066,-15.9924"/>
</g>
</g>
</svg>
