<?xml version="1.0" encoding="UTF-8" standalone="no"?>
<!DOCTYPE svg PUBLIC "-//W3C//DTD SVG 1.1//EN"
 "http://www.w3.org/Graphics/SVG/1.1/DTD/svg11.dtd">
<!-- Generated by graphviz version 2.40.1 (20161225.0304)
 -->
<!-- Title: %3 Pages: 1 -->
<svg width="247pt" height="27pt"
 viewBox="0.00 0.00 247.00 27.00" xmlns="http://www.w3.org/2000/svg" xmlns:xlink="http://www.w3.org/1999/xlink">
<g id="graph0" class="graph" transform="scale(1 1) rotate(0) translate(4 23)">
<title>%3</title>
<polygon fill="#ffffff" stroke="transparent" points="-4,4 -4,-23 243,-23 243,4 -4,4"/>
<!-- 4 -->
<g id="node1" class="node">
<title>4</title>
<ellipse fill="none" stroke="#000000" cx="229.5" cy="-9.5" rx="9.5" ry="9.5"/>
<text text-anchor="middle" x="229.5" y="-5.8" font-family="Times,serif" font-size="14.00" fill="#000000">4</text>
</g>
<!-- 3 -->
<g id="node2" class="node">
<title>3</title>
<ellipse fill="none" stroke="#000000" cx="174.5" cy="-9.5" rx="9.5" ry="9.5"/>
<text text-anchor="middle" x="174.5" y="-5.8" font-family="Times,serif" font-size="14.00" fill="#000000">3</text>
</g>
<!-- 3&#45;&gt;4 -->
<g id="edge1" class="edge">
<title>3&#45;&gt;4</title>
<path fill="none" stroke="#000000" stroke-width=".75" d="M184.0803,-9.5C192.494,-9.5 204.8715,-9.5 214.5814,-9.5"/>
<polygon fill="#000000" stroke="#000000" stroke-width=".75" points="214.6592,-11.2501 219.6592,-9.5 214.6591,-7.7501 214.6592,-11.2501"/>
</g>
<!-- 2 -->
<g id="node3" class="node">
<title>2</title>
<ellipse fill="none" stroke="#000000" cx="119.5" cy="-9.5" rx="9.5" ry="9.5"/>
<text text-anchor="middle" x="119.5" y="-5.8" font-family="Times,serif" font-size="14.00" fill="#000000">2</text>
</g>
<!-- 2&#45;&gt;3 -->
<g id="edge2" class="edge">
<title>2&#45;&gt;3</title>
<path fill="none" stroke="#000000" stroke-width=".75" d="M129.0803,-9.5C137.494,-9.5 149.8715,-9.5 159.5814,-9.5"/>
<polygon fill="#000000" stroke="#000000" stroke-width=".75" points="159.6592,-11.2501 164.6592,-9.5 159.6591,-7.7501 159.6592,-11.2501"/>
</g>
<!-- 1 -->
<g id="node4" class="node">
<title>1</title>
<ellipse fill="none" stroke="#000000" cx="64.5" cy="-9.5" rx="9.5" ry="9.5"/>
<text text-anchor="middle" x="64.5" y="-5.8" font-family="Times,serif" font-size="14.00" fill="#000000">1</text>
</g>
<!-- 1&#45;&gt;2 -->
<g id="edge3" class="edge">
<title>1&#45;&gt;2</title>
<path fill="none" stroke="#000000" stroke-width=".75" d="M74.0803,-9.5C82.494,-9.5 94.8715,-9.5 104.5814,-9.5"/>
<polygon fill="#000000" stroke="#000000" stroke-width=".75" points="104.6592,-11.2501 109.6592,-9.5 104.6591,-7.7501 104.6592,-11.2501"/>
</g>
<!-- 0 -->
<g id="node5" class="node">
<title>0</title>
<ellipse fill="none" stroke="#000000" cx="9.5" cy="-9.5" rx="9.5" ry="9.5"/>
<text text-anchor="middle" x="9.5" y="-5.8" font-family="Times,serif" font-size="14.00" fill="#000000">0</text>
</g>
<!-- 0&#45;&gt;1 -->
<g id="edge4" class="edge">
<title>0&#45;&gt;1</title>
<path fill="none" stroke="#000000" stroke-width=".75" d="M19.0803,-9.5C27.494,-9.5 39.8715,-9.5 49.5814,-9.5"/>
<polygon fill="#000000" stroke="#000000" stroke-width=".75" points="49.6592,-11.2501 54.6592,-9.5 49.6591,-7.7501 49.6592,-11.2501"/>
</g>
</g>
</svg>
