<?xml version="1.0" encoding="UTF-8" standalone="no"?>
<!DOCTYPE svg PUBLIC "-//W3C//DTD SVG 1.1//EN"
 "http://www.w3.org/Graphics/SVG/1.1/DTD/svg11.dtd">
<!-- Generated by graphviz version 2.40.1 (20161225.0304)
 -->
<!-- Title: %3 Pages: 1 -->
<svg width="247pt" height="46pt"
 viewBox="0.00 0.00 247.00 46.00" xmlns="http://www.w3.org/2000/svg" xmlns:xlink="http://www.w3.org/1999/xlink">
<g id="graph0" class="graph" transform="scale(1 1) rotate(0) translate(4 42)">
<title>%3</title>
<polygon fill="#ffffff" stroke="transparent" points="-4,4 -4,-42 243,-42 243,4 -4,4"/>
<!-- 4 -->
<g id="node1" class="node">
<title>4</title>
<ellipse fill="none" stroke="#000000" cx="229.5" cy="-28.5" rx="9.5" ry="9.5"/>
<text text-anchor="middle" x="229.5" y="-24.8" font-family="Times,serif" font-size="14.00" fill="#000000">4</text>
</g>
<!-- 3 -->
<g id="node2" class="node">
<title>3</title>
<ellipse fill="none" stroke="#000000" cx="174.5" cy="-28.5" rx="9.5" ry="9.5"/>
<text text-anchor="middle" x="174.5" y="-24.8" font-family="Times,serif" font-size="14.00" fill="#000000">3</text>
</g>
<!-- 3&#45;&gt;4 -->
<g id="edge1" class="edge">
<title>3&#45;&gt;4</title>
<path fill="none" stroke="#000000" stroke-width=".75" d="M184.0803,-28.5C192.494,-28.5 204.8715,-28.5 214.5814,-28.5"/>
<polygon fill="#000000" stroke="#000000" stroke-width=".75" points="214.6592,-30.2501 219.6592,-28.5 214.6591,-26.7501 214.6592,-30.2501"/>
</g>
<!-- 2 -->
<g id="node3" class="node">
<title>2</title>
<ellipse fill="none" stroke="#000000" cx="119.5" cy="-28.5" rx="9.5" ry="9.5"/>
<text text-anchor="middle" x="119.5" y="-24.8" font-family="Times,serif" font-size="14.00" fill="#000000">2</text>
</g>
<!-- 2&#45;&gt;3 -->
<g id="edge2" class="edge">
<title>2&#45;&gt;3</title>
<path fill="none" stroke="#000000" stroke-width=".75" d="M129.0803,-28.5C137.494,-28.5 149.8715,-28.5 159.5814,-28.5"/>
<polygon fill="#000000" stroke="#000000" stroke-width=".75" points="159.6592,-30.2501 164.6592,-28.5 159.6591,-26.7501 159.6592,-30.2501"/>
</g>
<!-- 1 -->
<g id="node4" class="node">
<title>1</title>
<ellipse fill="none" stroke="#000000" cx="64.5" cy="-9.5" rx="9.5" ry="9.5"/>
<text text-anchor="middle" x="64.5" y="-5.8" font-family="Times,serif" font-size="14.00" fill="#000000">1</text>
</g>
<!-- 1&#45;&gt;2 -->
<g id="edge3" class="edge">
<title>1&#45;&gt;2</title>
<path fill="none" stroke="#000000" stroke-width=".75" d="M73.5821,-12.6375C82.2081,-15.6173 95.3086,-20.143 105.3119,-23.5986"/>
<polygon fill="#000000" stroke="#000000" stroke-width=".75" points="104.9232,-25.3158 110.2205,-25.2944 106.066,-22.0076 104.9232,-25.3158"/>
</g>
<!-- 0 -->
<g id="node5" class="node">
<title>0</title>
<ellipse fill="none" stroke="#000000" cx="9.5" cy="-28.5" rx="9.5" ry="9.5"/>
<text text-anchor="middle" x="9.5" y="-24.8" font-family="Times,serif" font-size="14.00" fill="#000000">0</text>
</g>
<!-- 0&#45;&gt;2 -->
<g id="edge4" class="edge">
<title>0&#45;&gt;2</title>
<path fill="none" stroke="#000000" stroke-width=".75" d="M19.2618,-28.5C38.6356,-28.5 82.0377,-28.5 104.8505,-28.5"/>
<polygon fill="#000000" stroke="#000000" stroke-width=".75" points="104.9172,-30.2501 109.9172,-28.5 104.9171,-26.7501 104.9172,-30.2501"/>
</g>
<!-- 0&#45;&gt;1 -->
<g id="edge5" class="edge">
<title>0&#45;&gt;1</title>
<path fill="none" stroke="#000000" stroke-width=".75" d="M18.5821,-25.3625C27.2081,-22.3827 40.3086,-17.857 50.3119,-14.4014"/>
<polygon fill="#000000" stroke="#000000" stroke-width=".75" points="51.066,-15.9924 55.2205,-12.7056 49.9232,-12.6842 51.066,-15.9924"/>
</g>
</g>
</svg>
