<?xml version="1.0" encoding="UTF-8" standalone="no"?>
<!DOCTYPE svg PUBLIC "-//W3C//DTD SVG 1.1//EN"
 "http://www.w3.org/Graphics/SVG/1.1/DTD/svg11.dtd">
<!-- Generated by graphviz version 2.40.1 (20161225.0304)
 -->
<!-- Title: %3 Pages: 1 -->
<svg width="192pt" height="64pt"
 viewBox="0.00 0.00 192.00 64.00" xmlns="http://www.w3.org/2000/svg" xmlns:xlink="http://www.w3.org/1999/xlink">
<g id="graph0" class="graph" transform="scale(1 1) rotate(0) translate(4 60)">
<title>%3</title>
<polygon fill="#ffffff" stroke="transparent" points="-4,4 -4,-60 188,-60 188,4 -4,4"/>
<!-- 4 -->
<g id="node1" class="node">
<title>4</title>
<ellipse fill="none" stroke="#000000" cx="174.5" cy="-27.5" rx="9.5" ry="9.5"/>
<text text-anchor="middle" x="174.5" y="-23.8" font-family="Times,serif" font-size="14.00" fill="#000000">4</text>
</g>
<!-- 3 -->
<g id="node2" class="node">
<title>3</title>
<ellipse fill="none" stroke="#000000" cx="119.5" cy="-46.5" rx="9.5" ry="9.5"/>
<text text-anchor="middle" x="119.5" y="-42.8" font-family="Times,serif" font-size="14.00" fill="#000000">3</text>
</g>
<!-- 3&#45;&gt;4 -->
<g id="edge1" class="edge">
<title>3&#45;&gt;4</title>
<path fill="none" stroke="#000000" stroke-width=".75" d="M128.5821,-43.3625C137.2081,-40.3827 150.3086,-35.857 160.3119,-32.4014"/>
<polygon fill="#000000" stroke="#000000" stroke-width=".75" points="161.066,-33.9924 165.2205,-30.7056 159.9232,-30.6842 161.066,-33.9924"/>
</g>
<!-- 2 -->
<g id="node3" class="node">
<title>2</title>
<ellipse fill="none" stroke="#000000" cx="119.5" cy="-9.5" rx="9.5" ry="9.5"/>
<text text-anchor="middle" x="119.5" y="-5.8" font-family="Times,serif" font-size="14.00" fill="#000000">2</text>
</g>
<!-- 2&#45;&gt;4 -->
<g id="edge2" class="edge">
<title>2&#45;&gt;4</title>
<path fill="none" stroke="#000000" stroke-width=".75" d="M128.5821,-12.4723C137.2081,-15.2954 150.3086,-19.5828 160.3119,-22.8566"/>
<polygon fill="#000000" stroke="#000000" stroke-width=".75" points="159.9242,-24.571 165.2205,-24.4631 161.0129,-21.2446 159.9242,-24.571"/>
</g>
<!-- 1 -->
<g id="node4" class="node">
<title>1</title>
<ellipse fill="none" stroke="#000000" cx="64.5" cy="-27.5" rx="9.5" ry="9.5"/>
<text text-anchor="middle" x="64.5" y="-23.8" font-family="Times,serif" font-size="14.00" fill="#000000">1</text>
</g>
<!-- 1&#45;&gt;3 -->
<g id="edge3" class="edge">
<title>1&#45;&gt;3</title>
<path fill="none" stroke="#000000" stroke-width=".75" d="M73.5821,-30.6375C82.2081,-33.6173 95.3086,-38.143 105.3119,-41.5986"/>
<polygon fill="#000000" stroke="#000000" stroke-width=".75" points="104.9232,-43.3158 110.2205,-43.2944 106.066,-40.0076 104.9232,-43.3158"/>
</g>
<!-- 1&#45;&gt;2 -->
<g id="edge4" class="edge">
<title>1&#45;&gt;2</title>
<path fill="none" stroke="#000000" stroke-width=".75" d="M73.5821,-24.5277C82.2081,-21.7046 95.3086,-17.4172 105.3119,-14.1434"/>
<polygon fill="#000000" stroke="#000000" stroke-width=".75" points="106.0129,-15.7554 110.2205,-12.5369 104.9242,-12.429 106.0129,-15.7554"/>
</g>
<!-- 0 -->
<g id="node5" class="node">
<title>0</title>
<ellipse fill="none" stroke="#000000" cx="9.5" cy="-27.5" rx="9.5" ry="9.5"/>
<text text-anchor="middle" x="9.5" y="-23.8" font-family="Times,serif" font-size="14.00" fill="#000000">0</text>
</g>
<!-- 0&#45;&gt;1 -->
<g id="edge5" class="edge">
<title>0&#45;&gt;1</title>
<path fill="none" stroke="#000000" stroke-width=".75" d="M19.0803,-27.5C27.494,-27.5 39.8715,-27.5 49.5814,-27.5"/>
<polygon fill="#000000" stroke="#000000" stroke-width=".75" points="49.6592,-29.2501 54.6592,-27.5 49.6591,-25.7501 49.6592,-29.2501"/>
</g>
</g>
</svg>
