<?xml version="1.0" encoding="UTF-8" standalone="no"?>
<!DOCTYPE svg PUBLIC "-//W3C//DTD SVG 1.1//EN"
 "http://www.w3.org/Graphics/SVG/1.1/DTD/svg11.dtd">
<!-- Generated by graphviz version 2.40.1 (20161225.0304)
 -->
<!-- Title: %3 Pages: 1 -->
<svg width="357pt" height="65pt"
 viewBox="0.00 0.00 357.00 65.00" xmlns="http://www.w3.org/2000/svg" xmlns:xlink="http://www.w3.org/1999/xlink">
<g id="graph0" class="graph" transform="scale(1 1) rotate(0) translate(4 61)">
<title>%3</title>
<polygon fill="#ffffff" stroke="transparent" points="-4,4 -4,-61 353,-61 353,4 -4,4"/>
<!-- 7 -->
<g id="node1" class="node">
<title>7</title>
<ellipse fill="none" stroke="#000000" cx="339.5" cy="-27.5" rx="9.5" ry="9.5"/>
<text text-anchor="middle" x="339.5" y="-23.8" font-family="Times,serif" font-size="14.00" fill="#000000">7</text>
</g>
<!-- 6 -->
<g id="node2" class="node">
<title>6</title>
<ellipse fill="none" stroke="#000000" cx="284.5" cy="-9.5" rx="9.5" ry="9.5"/>
<text text-anchor="middle" x="284.5" y="-5.8" font-family="Times,serif" font-size="14.00" fill="#000000">6</text>
</g>
<!-- 6&#45;&gt;7 -->
<g id="edge1" class="edge">
<title>6&#45;&gt;7</title>
<path fill="none" stroke="#000000" stroke-width=".75" d="M293.5821,-12.4723C302.2081,-15.2954 315.3086,-19.5828 325.3119,-22.8566"/>
<polygon fill="#000000" stroke="#000000" stroke-width=".75" points="324.9242,-24.571 330.2205,-24.4631 326.0129,-21.2446 324.9242,-24.571"/>
</g>
<!-- 5 -->
<g id="node3" class="node">
<title>5</title>
<ellipse fill="none" stroke="#000000" cx="284.5" cy="-46.5" rx="9.5" ry="9.5"/>
<text text-anchor="middle" x="284.5" y="-42.8" font-family="Times,serif" font-size="14.00" fill="#000000">5</text>
</g>
<!-- 5&#45;&gt;7 -->
<g id="edge2" class="edge">
<title>5&#45;&gt;7</title>
<path fill="none" stroke="#000000" stroke-width=".75" d="M293.5821,-43.3625C302.2081,-40.3827 315.3086,-35.857 325.3119,-32.4014"/>
<polygon fill="#000000" stroke="#000000" stroke-width=".75" points="326.066,-33.9924 330.2205,-30.7056 324.9232,-30.6842 326.066,-33.9924"/>
</g>
<!-- 4 -->
<g id="node4" class="node">
<title>4</title>
<ellipse fill="none" stroke="#000000" cx="229.5" cy="-9.5" rx="9.5" ry="9.5"/>
<text text-anchor="middle" x="229.5" y="-5.8" font-family="Times,serif" font-size="14.00" fill="#000000">4</text>
</g>
<!-- 4&#45;&gt;6 -->
<g id="edge3" class="edge">
<title>4&#45;&gt;6</title>
<path fill="none" stroke="#000000" stroke-width=".75" d="M239.0803,-9.5C247.494,-9.5 259.8715,-9.5 269.5814,-9.5"/>
<polygon fill="#000000" stroke="#000000" stroke-width=".75" points="269.6592,-11.2501 274.6592,-9.5 269.6591,-7.7501 269.6592,-11.2501"/>
</g>
<!-- 3 -->
<g id="node5" class="node">
<title>3</title>
<ellipse fill="none" stroke="#000000" cx="174.5" cy="-28.5" rx="9.5" ry="9.5"/>
<text text-anchor="middle" x="174.5" y="-24.8" font-family="Times,serif" font-size="14.00" fill="#000000">3</text>
</g>
<!-- 3&#45;&gt;5 -->
<g id="edge4" class="edge">
<title>3&#45;&gt;5</title>
<path fill="none" stroke="#000000" stroke-width=".75" d="M183.8785,-30.0347C203.022,-33.1672 246.7238,-40.3184 269.7227,-44.0819"/>
<polygon fill="#000000" stroke="#000000" stroke-width=".75" points="269.6146,-45.8374 274.8316,-44.9179 270.1799,-42.3833 269.6146,-45.8374"/>
</g>
<!-- 3&#45;&gt;4 -->
<g id="edge5" class="edge">
<title>3&#45;&gt;4</title>
<path fill="none" stroke="#000000" stroke-width=".75" d="M183.5821,-25.3625C192.2081,-22.3827 205.3086,-17.857 215.3119,-14.4014"/>
<polygon fill="#000000" stroke="#000000" stroke-width=".75" points="216.066,-15.9924 220.2205,-12.7056 214.9232,-12.6842 216.066,-15.9924"/>
</g>
<!-- 2 -->
<g id="node6" class="node">
<title>2</title>
<ellipse fill="none" stroke="#000000" cx="119.5" cy="-47.5" rx="9.5" ry="9.5"/>
<text text-anchor="middle" x="119.5" y="-43.8" font-family="Times,serif" font-size="14.00" fill="#000000">2</text>
</g>
<!-- 2&#45;&gt;3 -->
<g id="edge6" class="edge">
<title>2&#45;&gt;3</title>
<path fill="none" stroke="#000000" stroke-width=".75" d="M128.5821,-44.3625C137.2081,-41.3827 150.3086,-36.857 160.3119,-33.4014"/>
<polygon fill="#000000" stroke="#000000" stroke-width=".75" points="161.066,-34.9924 165.2205,-31.7056 159.9232,-31.6842 161.066,-34.9924"/>
</g>
<!-- 1 -->
<g id="node7" class="node">
<title>1</title>
<ellipse fill="none" stroke="#000000" cx="64.5" cy="-9.5" rx="9.5" ry="9.5"/>
<text text-anchor="middle" x="64.5" y="-5.8" font-family="Times,serif" font-size="14.00" fill="#000000">1</text>
</g>
<!-- 1&#45;&gt;3 -->
<g id="edge7" class="edge">
<title>1&#45;&gt;3</title>
<path fill="none" stroke="#000000" stroke-width=".75" d="M73.8785,-11.1199C93.022,-14.4265 136.7238,-21.975 159.7227,-25.9476"/>
<polygon fill="#000000" stroke="#000000" stroke-width=".75" points="159.6067,-27.7034 164.8316,-26.83 160.2025,-24.2544 159.6067,-27.7034"/>
</g>
<!-- 1&#45;&gt;2 -->
<g id="edge8" class="edge">
<title>1&#45;&gt;2</title>
<path fill="none" stroke="#000000" stroke-width=".75" d="M72.6154,-15.107C81.7143,-21.3935 96.5735,-31.6599 107.1232,-38.9487"/>
<polygon fill="#000000" stroke="#000000" stroke-width=".75" points="106.2428,-40.4675 111.3513,-41.87 108.2324,-37.588 106.2428,-40.4675"/>
</g>
<!-- 0 -->
<g id="node8" class="node">
<title>0</title>
<ellipse fill="none" stroke="#000000" cx="9.5" cy="-28.5" rx="9.5" ry="9.5"/>
<text text-anchor="middle" x="9.5" y="-24.8" font-family="Times,serif" font-size="14.00" fill="#000000">0</text>
</g>
<!-- 0&#45;&gt;2 -->
<g id="edge9" class="edge">
<title>0&#45;&gt;2</title>
<path fill="none" stroke="#000000" stroke-width=".75" d="M18.8785,-30.1199C38.022,-33.4265 81.7238,-40.975 104.7227,-44.9476"/>
<polygon fill="#000000" stroke="#000000" stroke-width=".75" points="104.6067,-46.7034 109.8316,-45.83 105.2025,-43.2544 104.6067,-46.7034"/>
</g>
<!-- 0&#45;&gt;1 -->
<g id="edge10" class="edge">
<title>0&#45;&gt;1</title>
<path fill="none" stroke="#000000" stroke-width=".75" d="M18.5821,-25.3625C27.2081,-22.3827 40.3086,-17.857 50.3119,-14.4014"/>
<polygon fill="#000000" stroke="#000000" stroke-width=".75" points="51.066,-15.9924 55.2205,-12.7056 49.9232,-12.6842 51.066,-15.9924"/>
</g>
</g>
</svg>
