<?xml version="1.0" encoding="UTF-8" standalone="no"?>
<!DOCTYPE svg PUBLIC "-//W3C//DTD SVG 1.1//EN"
 "http://www.w3.org/Graphics/SVG/1.1/DTD/svg11.dtd">
<!-- Generated by graphviz version 2.40.1 (20161225.0304)
 -->
<!-- Title: %3 Pages: 1 -->
<svg width="302pt" height="84pt"
 viewBox="0.00 0.00 302.00 84.00" xmlns="http://www.w3.org/2000/svg" xmlns:xlink="http://www.w3.org/1999/xlink">
<g id="graph0" class="graph" transform="scale(1 1) rotate(0) translate(4 80)">
<title>%3</title>
<polygon fill="#ffffff" stroke="transparent" points="-4,4 -4,-80 298,-80 298,4 -4,4"/>
<!-- 7 -->
<g id="node1" class="node">
<title>7</title>
<ellipse fill="none" stroke="#000000" cx="284.5" cy="-27.5" rx="9.5" ry="9.5"/>
<text text-anchor="middle" x="284.5" y="-23.8" font-family="Times,serif" font-size="14.00" fill="#000000">7</text>
</g>
<!-- 6 -->
<g id="node2" class="node">
<title>6</title>
<ellipse fill="none" stroke="#000000" cx="229.5" cy="-46.5" rx="9.5" ry="9.5"/>
<text text-anchor="middle" x="229.5" y="-42.8" font-family="Times,serif" font-size="14.00" fill="#000000">6</text>
</g>
<!-- 6&#45;&gt;7 -->
<g id="edge1" class="edge">
<title>6&#45;&gt;7</title>
<path fill="none" stroke="#000000" stroke-width=".75" d="M238.5821,-43.3625C247.2081,-40.3827 260.3086,-35.857 270.3119,-32.4014"/>
<polygon fill="#000000" stroke="#000000" stroke-width=".75" points="271.066,-33.9924 275.2205,-30.7056 269.9232,-30.6842 271.066,-33.9924"/>
</g>
<!-- 5 -->
<g id="node3" class="node">
<title>5</title>
<ellipse fill="none" stroke="#000000" cx="229.5" cy="-9.5" rx="9.5" ry="9.5"/>
<text text-anchor="middle" x="229.5" y="-5.8" font-family="Times,serif" font-size="14.00" fill="#000000">5</text>
</g>
<!-- 5&#45;&gt;7 -->
<g id="edge2" class="edge">
<title>5&#45;&gt;7</title>
<path fill="none" stroke="#000000" stroke-width=".75" d="M238.5821,-12.4723C247.2081,-15.2954 260.3086,-19.5828 270.3119,-22.8566"/>
<polygon fill="#000000" stroke="#000000" stroke-width=".75" points="269.9242,-24.571 275.2205,-24.4631 271.0129,-21.2446 269.9242,-24.571"/>
</g>
<!-- 4 -->
<g id="node4" class="node">
<title>4</title>
<ellipse fill="none" stroke="#000000" cx="119.5" cy="-66.5" rx="9.5" ry="9.5"/>
<text text-anchor="middle" x="119.5" y="-62.8" font-family="Times,serif" font-size="14.00" fill="#000000">4</text>
</g>
<!-- 4&#45;&gt;6 -->
<g id="edge3" class="edge">
<title>4&#45;&gt;6</title>
<path fill="none" stroke="#000000" stroke-width=".75" d="M128.8785,-64.7948C148.1182,-61.2967 192.1636,-53.2884 215.0679,-49.124"/>
<polygon fill="#000000" stroke="#000000" stroke-width=".75" points="215.5389,-50.8172 220.1452,-48.2009 214.9128,-47.3736 215.5389,-50.8172"/>
</g>
<!-- 3 -->
<g id="node5" class="node">
<title>3</title>
<ellipse fill="none" stroke="#000000" cx="174.5" cy="-28.5" rx="9.5" ry="9.5"/>
<text text-anchor="middle" x="174.5" y="-24.8" font-family="Times,serif" font-size="14.00" fill="#000000">3</text>
</g>
<!-- 3&#45;&gt;6 -->
<g id="edge4" class="edge">
<title>3&#45;&gt;6</title>
<path fill="none" stroke="#000000" stroke-width=".75" d="M183.5821,-31.4723C192.2081,-34.2954 205.3086,-38.5828 215.3119,-41.8566"/>
<polygon fill="#000000" stroke="#000000" stroke-width=".75" points="214.9242,-43.571 220.2205,-43.4631 216.0129,-40.2446 214.9242,-43.571"/>
</g>
<!-- 3&#45;&gt;5 -->
<g id="edge5" class="edge">
<title>3&#45;&gt;5</title>
<path fill="none" stroke="#000000" stroke-width=".75" d="M183.5821,-25.3625C192.2081,-22.3827 205.3086,-17.857 215.3119,-14.4014"/>
<polygon fill="#000000" stroke="#000000" stroke-width=".75" points="216.066,-15.9924 220.2205,-12.7056 214.9232,-12.6842 216.066,-15.9924"/>
</g>
<!-- 2 -->
<g id="node6" class="node">
<title>2</title>
<ellipse fill="none" stroke="#000000" cx="119.5" cy="-28.5" rx="9.5" ry="9.5"/>
<text text-anchor="middle" x="119.5" y="-24.8" font-family="Times,serif" font-size="14.00" fill="#000000">2</text>
</g>
<!-- 2&#45;&gt;5 -->
<g id="edge6" class="edge">
<title>2&#45;&gt;5</title>
<path fill="none" stroke="#000000" stroke-width=".75" d="M127.8988,-23.7983C136.7938,-19.1098 151.4026,-12.225 165,-9.5 181.7164,-6.1499 201.3631,-6.7846 214.542,-7.8493"/>
<polygon fill="#000000" stroke="#000000" stroke-width=".75" points="214.6295,-9.6142 219.7667,-8.3215 214.9446,-6.1285 214.6295,-9.6142"/>
</g>
<!-- 2&#45;&gt;3 -->
<g id="edge7" class="edge">
<title>2&#45;&gt;3</title>
<path fill="none" stroke="#000000" stroke-width=".75" d="M129.0803,-28.5C137.494,-28.5 149.8715,-28.5 159.5814,-28.5"/>
<polygon fill="#000000" stroke="#000000" stroke-width=".75" points="159.6592,-30.2501 164.6592,-28.5 159.6591,-26.7501 159.6592,-30.2501"/>
</g>
<!-- 1 -->
<g id="node7" class="node">
<title>1</title>
<ellipse fill="none" stroke="#000000" cx="64.5" cy="-28.5" rx="9.5" ry="9.5"/>
<text text-anchor="middle" x="64.5" y="-24.8" font-family="Times,serif" font-size="14.00" fill="#000000">1</text>
</g>
<!-- 1&#45;&gt;4 -->
<g id="edge8" class="edge">
<title>1&#45;&gt;4</title>
<path fill="none" stroke="#000000" stroke-width=".75" d="M72.6154,-34.107C81.7143,-40.3935 96.5735,-50.6599 107.1232,-57.9487"/>
<polygon fill="#000000" stroke="#000000" stroke-width=".75" points="106.2428,-59.4675 111.3513,-60.87 108.2324,-56.588 106.2428,-59.4675"/>
</g>
<!-- 1&#45;&gt;2 -->
<g id="edge9" class="edge">
<title>1&#45;&gt;2</title>
<path fill="none" stroke="#000000" stroke-width=".75" d="M74.0803,-28.5C82.494,-28.5 94.8715,-28.5 104.5814,-28.5"/>
<polygon fill="#000000" stroke="#000000" stroke-width=".75" points="104.6592,-30.2501 109.6592,-28.5 104.6591,-26.7501 104.6592,-30.2501"/>
</g>
<!-- 0 -->
<g id="node8" class="node">
<title>0</title>
<ellipse fill="none" stroke="#000000" cx="9.5" cy="-47.5" rx="9.5" ry="9.5"/>
<text text-anchor="middle" x="9.5" y="-43.8" font-family="Times,serif" font-size="14.00" fill="#000000">0</text>
</g>
<!-- 0&#45;&gt;4 -->
<g id="edge10" class="edge">
<title>0&#45;&gt;4</title>
<path fill="none" stroke="#000000" stroke-width=".75" d="M18.8785,-49.1199C38.022,-52.4265 81.7238,-59.975 104.7227,-63.9476"/>
<polygon fill="#000000" stroke="#000000" stroke-width=".75" points="104.6067,-65.7034 109.8316,-64.83 105.2025,-62.2544 104.6067,-65.7034"/>
</g>
<!-- 0&#45;&gt;1 -->
<g id="edge11" class="edge">
<title>0&#45;&gt;1</title>
<path fill="none" stroke="#000000" stroke-width=".75" d="M18.5821,-44.3625C27.2081,-41.3827 40.3086,-36.857 50.3119,-33.4014"/>
<polygon fill="#000000" stroke="#000000" stroke-width=".75" points="51.066,-34.9924 55.2205,-31.7056 49.9232,-31.6842 51.066,-34.9924"/>
</g>
</g>
</svg>
