<?xml version="1.0" encoding="UTF-8" standalone="no"?>
<!DOCTYPE svg PUBLIC "-//W3C//DTD SVG 1.1//EN"
 "http://www.w3.org/Graphics/SVG/1.1/DTD/svg11.dtd">
<!-- Generated by graphviz version 2.40.1 (20161225.0304)
 -->
<!-- Title: %3 Pages: 1 -->
<svg width="247pt" height="101pt"
 viewBox="0.00 0.00 247.00 101.00" xmlns="http://www.w3.org/2000/svg" xmlns:xlink="http://www.w3.org/1999/xlink">
<g id="graph0" class="graph" transform="scale(1 1) rotate(0) translate(4 97)">
<title>%3</title>
<polygon fill="#ffffff" stroke="transparent" points="-4,4 -4,-97 243,-97 243,4 -4,4"/>
<!-- 7 -->
<g id="node1" class="node">
<title>7</title>
<ellipse fill="none" stroke="#000000" cx="229.5" cy="-64.5" rx="9.5" ry="9.5"/>
<text text-anchor="middle" x="229.5" y="-60.8" font-family="Times,serif" font-size="14.00" fill="#000000">7</text>
</g>
<!-- 6 -->
<g id="node2" class="node">
<title>6</title>
<ellipse fill="none" stroke="#000000" cx="174.5" cy="-46.5" rx="9.5" ry="9.5"/>
<text text-anchor="middle" x="174.5" y="-42.8" font-family="Times,serif" font-size="14.00" fill="#000000">6</text>
</g>
<!-- 6&#45;&gt;7 -->
<g id="edge1" class="edge">
<title>6&#45;&gt;7</title>
<path fill="none" stroke="#000000" stroke-width=".75" d="M183.5821,-49.4723C192.2081,-52.2954 205.3086,-56.5828 215.3119,-59.8566"/>
<polygon fill="#000000" stroke="#000000" stroke-width=".75" points="214.9242,-61.571 220.2205,-61.4631 216.0129,-58.2446 214.9242,-61.571"/>
</g>
<!-- 5 -->
<g id="node3" class="node">
<title>5</title>
<ellipse fill="none" stroke="#000000" cx="174.5" cy="-83.5" rx="9.5" ry="9.5"/>
<text text-anchor="middle" x="174.5" y="-79.8" font-family="Times,serif" font-size="14.00" fill="#000000">5</text>
</g>
<!-- 5&#45;&gt;7 -->
<g id="edge2" class="edge">
<title>5&#45;&gt;7</title>
<path fill="none" stroke="#000000" stroke-width=".75" d="M183.5821,-80.3625C192.2081,-77.3827 205.3086,-72.857 215.3119,-69.4014"/>
<polygon fill="#000000" stroke="#000000" stroke-width=".75" points="216.066,-70.9924 220.2205,-67.7056 214.9232,-67.6842 216.066,-70.9924"/>
</g>
<!-- 4 -->
<g id="node4" class="node">
<title>4</title>
<ellipse fill="none" stroke="#000000" cx="119.5" cy="-46.5" rx="9.5" ry="9.5"/>
<text text-anchor="middle" x="119.5" y="-42.8" font-family="Times,serif" font-size="14.00" fill="#000000">4</text>
</g>
<!-- 4&#45;&gt;6 -->
<g id="edge3" class="edge">
<title>4&#45;&gt;6</title>
<path fill="none" stroke="#000000" stroke-width=".75" d="M129.0803,-46.5C137.494,-46.5 149.8715,-46.5 159.5814,-46.5"/>
<polygon fill="#000000" stroke="#000000" stroke-width=".75" points="159.6592,-48.2501 164.6592,-46.5 159.6591,-44.7501 159.6592,-48.2501"/>
</g>
<!-- 3 -->
<g id="node5" class="node">
<title>3</title>
<ellipse fill="none" stroke="#000000" cx="119.5" cy="-9.5" rx="9.5" ry="9.5"/>
<text text-anchor="middle" x="119.5" y="-5.8" font-family="Times,serif" font-size="14.00" fill="#000000">3</text>
</g>
<!-- 3&#45;&gt;5 -->
<g id="edge4" class="edge">
<title>3&#45;&gt;5</title>
<path fill="none" stroke="#000000" stroke-width=".75" d="M125.1788,-17.1406C134.7301,-29.9913 154.0827,-56.0295 165.5006,-71.3917"/>
<polygon fill="#000000" stroke="#000000" stroke-width=".75" points="164.3825,-72.8211 168.7697,-75.7901 167.1916,-70.7332 164.3825,-72.8211"/>
</g>
<!-- 2 -->
<g id="node6" class="node">
<title>2</title>
<ellipse fill="none" stroke="#000000" cx="64.5" cy="-64.5" rx="9.5" ry="9.5"/>
<text text-anchor="middle" x="64.5" y="-60.8" font-family="Times,serif" font-size="14.00" fill="#000000">2</text>
</g>
<!-- 2&#45;&gt;5 -->
<g id="edge5" class="edge">
<title>2&#45;&gt;5</title>
<path fill="none" stroke="#000000" stroke-width=".75" d="M73.8785,-66.1199C93.022,-69.4265 136.7238,-76.975 159.7227,-80.9476"/>
<polygon fill="#000000" stroke="#000000" stroke-width=".75" points="159.6067,-82.7034 164.8316,-81.83 160.2025,-79.2544 159.6067,-82.7034"/>
</g>
<!-- 2&#45;&gt;4 -->
<g id="edge6" class="edge">
<title>2&#45;&gt;4</title>
<path fill="none" stroke="#000000" stroke-width=".75" d="M73.5821,-61.5277C82.2081,-58.7046 95.3086,-54.4172 105.3119,-51.1434"/>
<polygon fill="#000000" stroke="#000000" stroke-width=".75" points="106.0129,-52.7554 110.2205,-49.5369 104.9242,-49.429 106.0129,-52.7554"/>
</g>
<!-- 1 -->
<g id="node7" class="node">
<title>1</title>
<ellipse fill="none" stroke="#000000" cx="64.5" cy="-27.5" rx="9.5" ry="9.5"/>
<text text-anchor="middle" x="64.5" y="-23.8" font-family="Times,serif" font-size="14.00" fill="#000000">1</text>
</g>
<!-- 1&#45;&gt;4 -->
<g id="edge7" class="edge">
<title>1&#45;&gt;4</title>
<path fill="none" stroke="#000000" stroke-width=".75" d="M73.5821,-30.6375C82.2081,-33.6173 95.3086,-38.143 105.3119,-41.5986"/>
<polygon fill="#000000" stroke="#000000" stroke-width=".75" points="104.9232,-43.3158 110.2205,-43.2944 106.066,-40.0076 104.9232,-43.3158"/>
</g>
<!-- 1&#45;&gt;3 -->
<g id="edge8" class="edge">
<title>1&#45;&gt;3</title>
<path fill="none" stroke="#000000" stroke-width=".75" d="M73.5821,-24.5277C82.2081,-21.7046 95.3086,-17.4172 105.3119,-14.1434"/>
<polygon fill="#000000" stroke="#000000" stroke-width=".75" points="106.0129,-15.7554 110.2205,-12.5369 104.9242,-12.429 106.0129,-15.7554"/>
</g>
<!-- 0 -->
<g id="node8" class="node">
<title>0</title>
<ellipse fill="none" stroke="#000000" cx="9.5" cy="-45.5" rx="9.5" ry="9.5"/>
<text text-anchor="middle" x="9.5" y="-41.8" font-family="Times,serif" font-size="14.00" fill="#000000">0</text>
</g>
<!-- 0&#45;&gt;2 -->
<g id="edge9" class="edge">
<title>0&#45;&gt;2</title>
<path fill="none" stroke="#000000" stroke-width=".75" d="M18.5821,-48.6375C27.2081,-51.6173 40.3086,-56.143 50.3119,-59.5986"/>
<polygon fill="#000000" stroke="#000000" stroke-width=".75" points="49.9232,-61.3158 55.2205,-61.2944 51.066,-58.0076 49.9232,-61.3158"/>
</g>
<!-- 0&#45;&gt;1 -->
<g id="edge10" class="edge">
<title>0&#45;&gt;1</title>
<path fill="none" stroke="#000000" stroke-width=".75" d="M18.5821,-42.5277C27.2081,-39.7046 40.3086,-35.4172 50.3119,-32.1434"/>
<polygon fill="#000000" stroke="#000000" stroke-width=".75" points="51.0129,-33.7554 55.2205,-30.5369 49.9242,-30.429 51.0129,-33.7554"/>
</g>
</g>
</svg>
