<?xml version="1.0" encoding="UTF-8" standalone="no"?>
<!DOCTYPE svg PUBLIC "-//W3C//DTD SVG 1.1//EN"
 "http://www.w3.org/Graphics/SVG/1.1/DTD/svg11.dtd">
<!-- Generated by graphviz version 2.40.1 (20161225.0304)
 -->
<!-- Title: %3 Pages: 1 -->
<svg width="247pt" height="121pt"
 viewBox="0.00 0.00 247.00 121.00" xmlns="http://www.w3.org/2000/svg" xmlns:xlink="http://www.w3.org/1999/xlink">
<g id="graph0" class="graph" transform="scale(1 1) rotate(0) translate(4 117)">
<title>%3</title>
<polygon fill="#ffffff" stroke="transparent" points="-4,4 -4,-117 243,-117 243,4 -4,4"/>
<!-- 7 -->
<g id="node1" class="node">
<title>7</title>
<ellipse fill="none" stroke="#000000" cx="229.5" cy="-66.5" rx="9.5" ry="9.5"/>
<text text-anchor="middle" x="229.5" y="-62.8" font-family="Times,serif" font-size="14.00" fill="#000000">7</text>
</g>
<!-- 6 -->
<g id="node2" class="node">
<title>6</title>
<ellipse fill="none" stroke="#000000" cx="174.5" cy="-29.5" rx="9.5" ry="9.5"/>
<text text-anchor="middle" x="174.5" y="-25.8" font-family="Times,serif" font-size="14.00" fill="#000000">6</text>
</g>
<!-- 6&#45;&gt;7 -->
<g id="edge1" class="edge">
<title>6&#45;&gt;7</title>
<path fill="none" stroke="#000000" stroke-width=".75" d="M182.6154,-34.9595C191.7143,-41.0805 206.5735,-51.0767 217.1232,-58.1738"/>
<polygon fill="#000000" stroke="#000000" stroke-width=".75" points="216.2258,-59.6792 221.3513,-61.0181 218.1795,-56.7752 216.2258,-59.6792"/>
</g>
<!-- 5 -->
<g id="node3" class="node">
<title>5</title>
<ellipse fill="none" stroke="#000000" cx="174.5" cy="-103.5" rx="9.5" ry="9.5"/>
<text text-anchor="middle" x="174.5" y="-99.8" font-family="Times,serif" font-size="14.00" fill="#000000">5</text>
</g>
<!-- 5&#45;&gt;7 -->
<g id="edge2" class="edge">
<title>5&#45;&gt;7</title>
<path fill="none" stroke="#000000" stroke-width=".75" d="M182.6154,-98.0405C191.7143,-91.9195 206.5735,-81.9233 217.1232,-74.8262"/>
<polygon fill="#000000" stroke="#000000" stroke-width=".75" points="218.1795,-76.2248 221.3513,-71.9819 216.2258,-73.3208 218.1795,-76.2248"/>
</g>
<!-- 4 -->
<g id="node4" class="node">
<title>4</title>
<ellipse fill="none" stroke="#000000" cx="174.5" cy="-66.5" rx="9.5" ry="9.5"/>
<text text-anchor="middle" x="174.5" y="-62.8" font-family="Times,serif" font-size="14.00" fill="#000000">4</text>
</g>
<!-- 4&#45;&gt;7 -->
<g id="edge3" class="edge">
<title>4&#45;&gt;7</title>
<path fill="none" stroke="#000000" stroke-width=".75" d="M184.0803,-66.5C192.494,-66.5 204.8715,-66.5 214.5814,-66.5"/>
<polygon fill="#000000" stroke="#000000" stroke-width=".75" points="214.6592,-68.2501 219.6592,-66.5 214.6591,-64.7501 214.6592,-68.2501"/>
</g>
<!-- 3 -->
<g id="node5" class="node">
<title>3</title>
<ellipse fill="none" stroke="#000000" cx="119.5" cy="-9.5" rx="9.5" ry="9.5"/>
<text text-anchor="middle" x="119.5" y="-5.8" font-family="Times,serif" font-size="14.00" fill="#000000">3</text>
</g>
<!-- 3&#45;&gt;6 -->
<g id="edge4" class="edge">
<title>3&#45;&gt;6</title>
<path fill="none" stroke="#000000" stroke-width=".75" d="M128.5821,-12.8026C137.2081,-15.9393 150.3086,-20.7031 160.3119,-24.3407"/>
<polygon fill="#000000" stroke="#000000" stroke-width=".75" points="159.9235,-26.0615 165.2205,-26.1257 161.1196,-22.7722 159.9235,-26.0615"/>
</g>
<!-- 2 -->
<g id="node6" class="node">
<title>2</title>
<ellipse fill="none" stroke="#000000" cx="119.5" cy="-85.5" rx="9.5" ry="9.5"/>
<text text-anchor="middle" x="119.5" y="-81.8" font-family="Times,serif" font-size="14.00" fill="#000000">2</text>
</g>
<!-- 2&#45;&gt;5 -->
<g id="edge5" class="edge">
<title>2&#45;&gt;5</title>
<path fill="none" stroke="#000000" stroke-width=".75" d="M128.5821,-88.4723C137.2081,-91.2954 150.3086,-95.5828 160.3119,-98.8566"/>
<polygon fill="#000000" stroke="#000000" stroke-width=".75" points="159.9242,-100.571 165.2205,-100.4631 161.0129,-97.2446 159.9242,-100.571"/>
</g>
<!-- 2&#45;&gt;4 -->
<g id="edge6" class="edge">
<title>2&#45;&gt;4</title>
<path fill="none" stroke="#000000" stroke-width=".75" d="M128.5821,-82.3625C137.2081,-79.3827 150.3086,-74.857 160.3119,-71.4014"/>
<polygon fill="#000000" stroke="#000000" stroke-width=".75" points="161.066,-72.9924 165.2205,-69.7056 159.9232,-69.6842 161.066,-72.9924"/>
</g>
<!-- 1 -->
<g id="node7" class="node">
<title>1</title>
<ellipse fill="none" stroke="#000000" cx="64.5" cy="-47.5" rx="9.5" ry="9.5"/>
<text text-anchor="middle" x="64.5" y="-43.8" font-family="Times,serif" font-size="14.00" fill="#000000">1</text>
</g>
<!-- 1&#45;&gt;6 -->
<g id="edge7" class="edge">
<title>1&#45;&gt;6</title>
<path fill="none" stroke="#000000" stroke-width=".75" d="M73.8785,-45.9653C93.022,-42.8328 136.7238,-35.6816 159.7227,-31.9181"/>
<polygon fill="#000000" stroke="#000000" stroke-width=".75" points="160.1799,-33.6167 164.8316,-31.0821 159.6146,-30.1626 160.1799,-33.6167"/>
</g>
<!-- 1&#45;&gt;3 -->
<g id="edge8" class="edge">
<title>1&#45;&gt;3</title>
<path fill="none" stroke="#000000" stroke-width=".75" d="M72.6154,-41.893C81.7143,-35.6065 96.5735,-25.3401 107.1232,-18.0513"/>
<polygon fill="#000000" stroke="#000000" stroke-width=".75" points="108.2324,-19.412 111.3513,-15.13 106.2428,-16.5325 108.2324,-19.412"/>
</g>
<!-- 0 -->
<g id="node8" class="node">
<title>0</title>
<ellipse fill="none" stroke="#000000" cx="9.5" cy="-66.5" rx="9.5" ry="9.5"/>
<text text-anchor="middle" x="9.5" y="-62.8" font-family="Times,serif" font-size="14.00" fill="#000000">0</text>
</g>
<!-- 0&#45;&gt;2 -->
<g id="edge9" class="edge">
<title>0&#45;&gt;2</title>
<path fill="none" stroke="#000000" stroke-width=".75" d="M18.8785,-68.1199C38.022,-71.4265 81.7238,-78.975 104.7227,-82.9476"/>
<polygon fill="#000000" stroke="#000000" stroke-width=".75" points="104.6067,-84.7034 109.8316,-83.83 105.2025,-81.2544 104.6067,-84.7034"/>
</g>
<!-- 0&#45;&gt;1 -->
<g id="edge10" class="edge">
<title>0&#45;&gt;1</title>
<path fill="none" stroke="#000000" stroke-width=".75" d="M18.5821,-63.3625C27.2081,-60.3827 40.3086,-55.857 50.3119,-52.4014"/>
<polygon fill="#000000" stroke="#000000" stroke-width=".75" points="51.066,-53.9924 55.2205,-50.7056 49.9232,-50.6842 51.066,-53.9924"/>
</g>
</g>
</svg>
