<?xml version="1.0" encoding="UTF-8" standalone="no"?>
<!DOCTYPE svg PUBLIC "-//W3C//DTD SVG 1.1//EN"
 "http://www.w3.org/Graphics/SVG/1.1/DTD/svg11.dtd">
<!-- Generated by graphviz version 2.40.1 (20161225.0304)
 -->
<!-- Title: %3 Pages: 1 -->
<svg width="247pt" height="83pt"
 viewBox="0.00 0.00 247.00 83.00" xmlns="http://www.w3.org/2000/svg" xmlns:xlink="http://www.w3.org/1999/xlink">
<g id="graph0" class="graph" transform="scale(1 1) rotate(0) translate(4 79)">
<title>%3</title>
<polygon fill="#ffffff" stroke="transparent" points="-4,4 -4,-79 243,-79 243,4 -4,4"/>
<!-- 5 -->
<g id="node1" class="node">
<title>5</title>
<ellipse fill="none" stroke="#000000" cx="229.5" cy="-27.5" rx="9.5" ry="9.5"/>
<text text-anchor="middle" x="229.5" y="-23.8" font-family="Times,serif" font-size="14.00" fill="#000000">5</text>
</g>
<!-- 4 -->
<g id="node2" class="node">
<title>4</title>
<ellipse fill="none" stroke="#000000" cx="174.5" cy="-46.5" rx="9.5" ry="9.5"/>
<text text-anchor="middle" x="174.5" y="-42.8" font-family="Times,serif" font-size="14.00" fill="#000000">4</text>
</g>
<!-- 4&#45;&gt;5 -->
<g id="edge1" class="edge">
<title>4&#45;&gt;5</title>
<path fill="none" stroke="#000000" stroke-width=".75" d="M183.5821,-43.3625C192.2081,-40.3827 205.3086,-35.857 215.3119,-32.4014"/>
<polygon fill="#000000" stroke="#000000" stroke-width=".75" points="216.066,-33.9924 220.2205,-30.7056 214.9232,-30.6842 216.066,-33.9924"/>
</g>
<!-- 3 -->
<g id="node3" class="node">
<title>3</title>
<ellipse fill="none" stroke="#000000" cx="174.5" cy="-9.5" rx="9.5" ry="9.5"/>
<text text-anchor="middle" x="174.5" y="-5.8" font-family="Times,serif" font-size="14.00" fill="#000000">3</text>
</g>
<!-- 3&#45;&gt;5 -->
<g id="edge2" class="edge">
<title>3&#45;&gt;5</title>
<path fill="none" stroke="#000000" stroke-width=".75" d="M183.5821,-12.4723C192.2081,-15.2954 205.3086,-19.5828 215.3119,-22.8566"/>
<polygon fill="#000000" stroke="#000000" stroke-width=".75" points="214.9242,-24.571 220.2205,-24.4631 216.0129,-21.2446 214.9242,-24.571"/>
</g>
<!-- 2 -->
<g id="node4" class="node">
<title>2</title>
<ellipse fill="none" stroke="#000000" cx="119.5" cy="-46.5" rx="9.5" ry="9.5"/>
<text text-anchor="middle" x="119.5" y="-42.8" font-family="Times,serif" font-size="14.00" fill="#000000">2</text>
</g>
<!-- 2&#45;&gt;4 -->
<g id="edge3" class="edge">
<title>2&#45;&gt;4</title>
<path fill="none" stroke="#000000" stroke-width=".75" d="M129.0803,-46.5C137.494,-46.5 149.8715,-46.5 159.5814,-46.5"/>
<polygon fill="#000000" stroke="#000000" stroke-width=".75" points="159.6592,-48.2501 164.6592,-46.5 159.6591,-44.7501 159.6592,-48.2501"/>
</g>
<!-- 1 -->
<g id="node5" class="node">
<title>1</title>
<ellipse fill="none" stroke="#000000" cx="64.5" cy="-46.5" rx="9.5" ry="9.5"/>
<text text-anchor="middle" x="64.5" y="-42.8" font-family="Times,serif" font-size="14.00" fill="#000000">1</text>
</g>
<!-- 1&#45;&gt;3 -->
<g id="edge4" class="edge">
<title>1&#45;&gt;3</title>
<path fill="none" stroke="#000000" stroke-width=".75" d="M73.4373,-42.3818C82.5213,-38.2881 97.0597,-31.9882 110,-27.5 127.0662,-21.5807 147.1761,-16.216 160.3483,-12.9132"/>
<polygon fill="#000000" stroke="#000000" stroke-width=".75" points="160.7713,-14.6114 165.2038,-11.7104 159.9297,-11.2141 160.7713,-14.6114"/>
</g>
<!-- 1&#45;&gt;2 -->
<g id="edge5" class="edge">
<title>1&#45;&gt;2</title>
<path fill="none" stroke="#000000" stroke-width=".75" d="M74.0803,-46.5C82.494,-46.5 94.8715,-46.5 104.5814,-46.5"/>
<polygon fill="#000000" stroke="#000000" stroke-width=".75" points="104.6592,-48.2501 109.6592,-46.5 104.6591,-44.7501 104.6592,-48.2501"/>
</g>
<!-- 0 -->
<g id="node6" class="node">
<title>0</title>
<ellipse fill="none" stroke="#000000" cx="9.5" cy="-65.5" rx="9.5" ry="9.5"/>
<text text-anchor="middle" x="9.5" y="-61.8" font-family="Times,serif" font-size="14.00" fill="#000000">0</text>
</g>
<!-- 0&#45;&gt;4 -->
<g id="edge6" class="edge">
<title>0&#45;&gt;4</title>
<path fill="none" stroke="#000000" stroke-width=".75" d="M18.9202,-66.743C39.2638,-69.1575 88.7227,-73.5718 129,-65.5 140.4728,-63.2008 152.6656,-57.9402 161.5388,-53.536"/>
<polygon fill="#000000" stroke="#000000" stroke-width=".75" points="162.4471,-55.0371 166.1012,-51.2017 160.8528,-51.9213 162.4471,-55.0371"/>
</g>
<!-- 0&#45;&gt;1 -->
<g id="edge7" class="edge">
<title>0&#45;&gt;1</title>
<path fill="none" stroke="#000000" stroke-width=".75" d="M18.5821,-62.3625C27.2081,-59.3827 40.3086,-54.857 50.3119,-51.4014"/>
<polygon fill="#000000" stroke="#000000" stroke-width=".75" points="51.066,-52.9924 55.2205,-49.7056 49.9232,-49.6842 51.066,-52.9924"/>
</g>
</g>
</svg>
