<?xml version="1.0" encoding="UTF-8" standalone="no"?>
<!DOCTYPE svg PUBLIC "-//W3C//DTD SVG 1.1//EN"
 "http://www.w3.org/Graphics/SVG/1.1/DTD/svg11.dtd">
<!-- Generated by graphviz version 2.40.1 (20161225.0304)
 -->
<!-- Title: %3 Pages: 1 -->
<svg width="192pt" height="101pt"
 viewBox="0.00 0.00 192.00 101.00" xmlns="http://www.w3.org/2000/svg" xmlns:xlink="http://www.w3.org/1999/xlink">
<g id="graph0" class="graph" transform="scale(1 1) rotate(0) translate(4 97)">
<title>%3</title>
<polygon fill="#ffffff" stroke="transparent" points="-4,4 -4,-97 188,-97 188,4 -4,4"/>
<!-- 5 -->
<g id="node1" class="node">
<title>5</title>
<ellipse fill="none" stroke="#000000" cx="174.5" cy="-46.5" rx="9.5" ry="9.5"/>
<text text-anchor="middle" x="174.5" y="-42.8" font-family="Times,serif" font-size="14.00" fill="#000000">5</text>
</g>
<!-- 4 -->
<g id="node2" class="node">
<title>4</title>
<ellipse fill="none" stroke="#000000" cx="119.5" cy="-46.5" rx="9.5" ry="9.5"/>
<text text-anchor="middle" x="119.5" y="-42.8" font-family="Times,serif" font-size="14.00" fill="#000000">4</text>
</g>
<!-- 4&#45;&gt;5 -->
<g id="edge1" class="edge">
<title>4&#45;&gt;5</title>
<path fill="none" stroke="#000000" stroke-width=".75" d="M129.0803,-46.5C137.494,-46.5 149.8715,-46.5 159.5814,-46.5"/>
<polygon fill="#000000" stroke="#000000" stroke-width=".75" points="159.6592,-48.2501 164.6592,-46.5 159.6591,-44.7501 159.6592,-48.2501"/>
</g>
<!-- 3 -->
<g id="node3" class="node">
<title>3</title>
<ellipse fill="none" stroke="#000000" cx="119.5" cy="-9.5" rx="9.5" ry="9.5"/>
<text text-anchor="middle" x="119.5" y="-5.8" font-family="Times,serif" font-size="14.00" fill="#000000">3</text>
</g>
<!-- 3&#45;&gt;5 -->
<g id="edge2" class="edge">
<title>3&#45;&gt;5</title>
<path fill="none" stroke="#000000" stroke-width=".75" d="M127.6154,-14.9595C136.7143,-21.0805 151.5735,-31.0767 162.1232,-38.1738"/>
<polygon fill="#000000" stroke="#000000" stroke-width=".75" points="161.2258,-39.6792 166.3513,-41.0181 163.1795,-36.7752 161.2258,-39.6792"/>
</g>
<!-- 2 -->
<g id="node4" class="node">
<title>2</title>
<ellipse fill="none" stroke="#000000" cx="64.5" cy="-83.5" rx="9.5" ry="9.5"/>
<text text-anchor="middle" x="64.5" y="-79.8" font-family="Times,serif" font-size="14.00" fill="#000000">2</text>
</g>
<!-- 2&#45;&gt;5 -->
<g id="edge3" class="edge">
<title>2&#45;&gt;5</title>
<path fill="none" stroke="#000000" stroke-width=".75" d="M73.7684,-81.0528C86.3722,-77.6608 109.5736,-71.1886 129,-64.5 139.8435,-60.7665 151.9037,-55.9651 160.8818,-52.2602"/>
<polygon fill="#000000" stroke="#000000" stroke-width=".75" points="161.5809,-53.8649 165.5253,-50.3286 160.2366,-50.6333 161.5809,-53.8649"/>
</g>
<!-- 1 -->
<g id="node5" class="node">
<title>1</title>
<ellipse fill="none" stroke="#000000" cx="64.5" cy="-46.5" rx="9.5" ry="9.5"/>
<text text-anchor="middle" x="64.5" y="-42.8" font-family="Times,serif" font-size="14.00" fill="#000000">1</text>
</g>
<!-- 1&#45;&gt;4 -->
<g id="edge4" class="edge">
<title>1&#45;&gt;4</title>
<path fill="none" stroke="#000000" stroke-width=".75" d="M74.0803,-46.5C82.494,-46.5 94.8715,-46.5 104.5814,-46.5"/>
<polygon fill="#000000" stroke="#000000" stroke-width=".75" points="104.6592,-48.2501 109.6592,-46.5 104.6591,-44.7501 104.6592,-48.2501"/>
</g>
<!-- 1&#45;&gt;3 -->
<g id="edge5" class="edge">
<title>1&#45;&gt;3</title>
<path fill="none" stroke="#000000" stroke-width=".75" d="M72.6154,-41.0405C81.7143,-34.9195 96.5735,-24.9233 107.1232,-17.8262"/>
<polygon fill="#000000" stroke="#000000" stroke-width=".75" points="108.1795,-19.2248 111.3513,-14.9819 106.2258,-16.3208 108.1795,-19.2248"/>
</g>
<!-- 0 -->
<g id="node6" class="node">
<title>0</title>
<ellipse fill="none" stroke="#000000" cx="9.5" cy="-64.5" rx="9.5" ry="9.5"/>
<text text-anchor="middle" x="9.5" y="-60.8" font-family="Times,serif" font-size="14.00" fill="#000000">0</text>
</g>
<!-- 0&#45;&gt;2 -->
<g id="edge6" class="edge">
<title>0&#45;&gt;2</title>
<path fill="none" stroke="#000000" stroke-width=".75" d="M18.5821,-67.6375C27.2081,-70.6173 40.3086,-75.143 50.3119,-78.5986"/>
<polygon fill="#000000" stroke="#000000" stroke-width=".75" points="49.9232,-80.3158 55.2205,-80.2944 51.066,-77.0076 49.9232,-80.3158"/>
</g>
<!-- 0&#45;&gt;1 -->
<g id="edge7" class="edge">
<title>0&#45;&gt;1</title>
<path fill="none" stroke="#000000" stroke-width=".75" d="M18.5821,-61.5277C27.2081,-58.7046 40.3086,-54.4172 50.3119,-51.1434"/>
<polygon fill="#000000" stroke="#000000" stroke-width=".75" points="51.0129,-52.7554 55.2205,-49.5369 49.9242,-49.429 51.0129,-52.7554"/>
</g>
</g>
</svg>
