<?xml version="1.0" encoding="UTF-8" standalone="no"?>
<!DOCTYPE svg PUBLIC "-//W3C//DTD SVG 1.1//EN"
 "http://www.w3.org/Graphics/SVG/1.1/DTD/svg11.dtd">
<!-- Generated by graphviz version 2.40.1 (20161225.0304)
 -->
<!-- Title: %3 Pages: 1 -->
<svg width="302pt" height="101pt"
 viewBox="0.00 0.00 302.00 101.00" xmlns="http://www.w3.org/2000/svg" xmlns:xlink="http://www.w3.org/1999/xlink">
<g id="graph0" class="graph" transform="scale(1 1) rotate(0) translate(4 97)">
<title>%3</title>
<polygon fill="#ffffff" stroke="transparent" points="-4,4 -4,-97 298,-97 298,4 -4,4"/>
<!-- 9 -->
<g id="node1" class="node">
<title>9</title>
<ellipse fill="none" stroke="#000000" cx="284.5" cy="-46.5" rx="9.5" ry="9.5"/>
<text text-anchor="middle" x="284.5" y="-42.8" font-family="Times,serif" font-size="14.00" fill="#000000">9</text>
</g>
<!-- 8 -->
<g id="node2" class="node">
<title>8</title>
<ellipse fill="none" stroke="#000000" cx="229.5" cy="-83.5" rx="9.5" ry="9.5"/>
<text text-anchor="middle" x="229.5" y="-79.8" font-family="Times,serif" font-size="14.00" fill="#000000">8</text>
</g>
<!-- 8&#45;&gt;9 -->
<g id="edge1" class="edge">
<title>8&#45;&gt;9</title>
<path fill="none" stroke="#000000" stroke-width=".75" d="M237.6154,-78.0405C246.7143,-71.9195 261.5735,-61.9233 272.1232,-54.8262"/>
<polygon fill="#000000" stroke="#000000" stroke-width=".75" points="273.1795,-56.2248 276.3513,-51.9819 271.2258,-53.3208 273.1795,-56.2248"/>
</g>
<!-- 7 -->
<g id="node3" class="node">
<title>7</title>
<ellipse fill="none" stroke="#000000" cx="229.5" cy="-46.5" rx="9.5" ry="9.5"/>
<text text-anchor="middle" x="229.5" y="-42.8" font-family="Times,serif" font-size="14.00" fill="#000000">7</text>
</g>
<!-- 7&#45;&gt;9 -->
<g id="edge2" class="edge">
<title>7&#45;&gt;9</title>
<path fill="none" stroke="#000000" stroke-width=".75" d="M239.0803,-46.5C247.494,-46.5 259.8715,-46.5 269.5814,-46.5"/>
<polygon fill="#000000" stroke="#000000" stroke-width=".75" points="269.6592,-48.2501 274.6592,-46.5 269.6591,-44.7501 269.6592,-48.2501"/>
</g>
<!-- 6 -->
<g id="node4" class="node">
<title>6</title>
<ellipse fill="none" stroke="#000000" cx="229.5" cy="-9.5" rx="9.5" ry="9.5"/>
<text text-anchor="middle" x="229.5" y="-5.8" font-family="Times,serif" font-size="14.00" fill="#000000">6</text>
</g>
<!-- 6&#45;&gt;9 -->
<g id="edge3" class="edge">
<title>6&#45;&gt;9</title>
<path fill="none" stroke="#000000" stroke-width=".75" d="M237.6154,-14.9595C246.7143,-21.0805 261.5735,-31.0767 272.1232,-38.1738"/>
<polygon fill="#000000" stroke="#000000" stroke-width=".75" points="271.2258,-39.6792 276.3513,-41.0181 273.1795,-36.7752 271.2258,-39.6792"/>
</g>
<!-- 5 -->
<g id="node5" class="node">
<title>5</title>
<ellipse fill="none" stroke="#000000" cx="174.5" cy="-46.5" rx="9.5" ry="9.5"/>
<text text-anchor="middle" x="174.5" y="-42.8" font-family="Times,serif" font-size="14.00" fill="#000000">5</text>
</g>
<!-- 5&#45;&gt;8 -->
<g id="edge4" class="edge">
<title>5&#45;&gt;8</title>
<path fill="none" stroke="#000000" stroke-width=".75" d="M182.6154,-51.9595C191.7143,-58.0805 206.5735,-68.0767 217.1232,-75.1738"/>
<polygon fill="#000000" stroke="#000000" stroke-width=".75" points="216.2258,-76.6792 221.3513,-78.0181 218.1795,-73.7752 216.2258,-76.6792"/>
</g>
<!-- 5&#45;&gt;7 -->
<g id="edge5" class="edge">
<title>5&#45;&gt;7</title>
<path fill="none" stroke="#000000" stroke-width=".75" d="M184.0803,-46.5C192.494,-46.5 204.8715,-46.5 214.5814,-46.5"/>
<polygon fill="#000000" stroke="#000000" stroke-width=".75" points="214.6592,-48.2501 219.6592,-46.5 214.6591,-44.7501 214.6592,-48.2501"/>
</g>
<!-- 4 -->
<g id="node6" class="node">
<title>4</title>
<ellipse fill="none" stroke="#000000" cx="174.5" cy="-9.5" rx="9.5" ry="9.5"/>
<text text-anchor="middle" x="174.5" y="-5.8" font-family="Times,serif" font-size="14.00" fill="#000000">4</text>
</g>
<!-- 4&#45;&gt;6 -->
<g id="edge6" class="edge">
<title>4&#45;&gt;6</title>
<path fill="none" stroke="#000000" stroke-width=".75" d="M184.0803,-9.5C192.494,-9.5 204.8715,-9.5 214.5814,-9.5"/>
<polygon fill="#000000" stroke="#000000" stroke-width=".75" points="214.6592,-11.2501 219.6592,-9.5 214.6591,-7.7501 214.6592,-11.2501"/>
</g>
<!-- 3 -->
<g id="node7" class="node">
<title>3</title>
<ellipse fill="none" stroke="#000000" cx="119.5" cy="-46.5" rx="9.5" ry="9.5"/>
<text text-anchor="middle" x="119.5" y="-42.8" font-family="Times,serif" font-size="14.00" fill="#000000">3</text>
</g>
<!-- 3&#45;&gt;5 -->
<g id="edge7" class="edge">
<title>3&#45;&gt;5</title>
<path fill="none" stroke="#000000" stroke-width=".75" d="M129.0803,-46.5C137.494,-46.5 149.8715,-46.5 159.5814,-46.5"/>
<polygon fill="#000000" stroke="#000000" stroke-width=".75" points="159.6592,-48.2501 164.6592,-46.5 159.6591,-44.7501 159.6592,-48.2501"/>
</g>
<!-- 2 -->
<g id="node8" class="node">
<title>2</title>
<ellipse fill="none" stroke="#000000" cx="119.5" cy="-9.5" rx="9.5" ry="9.5"/>
<text text-anchor="middle" x="119.5" y="-5.8" font-family="Times,serif" font-size="14.00" fill="#000000">2</text>
</g>
<!-- 2&#45;&gt;4 -->
<g id="edge8" class="edge">
<title>2&#45;&gt;4</title>
<path fill="none" stroke="#000000" stroke-width=".75" d="M129.0803,-9.5C137.494,-9.5 149.8715,-9.5 159.5814,-9.5"/>
<polygon fill="#000000" stroke="#000000" stroke-width=".75" points="159.6592,-11.2501 164.6592,-9.5 159.6591,-7.7501 159.6592,-11.2501"/>
</g>
<!-- 1 -->
<g id="node9" class="node">
<title>1</title>
<ellipse fill="none" stroke="#000000" cx="64.5" cy="-27.5" rx="9.5" ry="9.5"/>
<text text-anchor="middle" x="64.5" y="-23.8" font-family="Times,serif" font-size="14.00" fill="#000000">1</text>
</g>
<!-- 1&#45;&gt;3 -->
<g id="edge9" class="edge">
<title>1&#45;&gt;3</title>
<path fill="none" stroke="#000000" stroke-width=".75" d="M73.5821,-30.6375C82.2081,-33.6173 95.3086,-38.143 105.3119,-41.5986"/>
<polygon fill="#000000" stroke="#000000" stroke-width=".75" points="104.9232,-43.3158 110.2205,-43.2944 106.066,-40.0076 104.9232,-43.3158"/>
</g>
<!-- 1&#45;&gt;2 -->
<g id="edge10" class="edge">
<title>1&#45;&gt;2</title>
<path fill="none" stroke="#000000" stroke-width=".75" d="M73.5821,-24.5277C82.2081,-21.7046 95.3086,-17.4172 105.3119,-14.1434"/>
<polygon fill="#000000" stroke="#000000" stroke-width=".75" points="106.0129,-15.7554 110.2205,-12.5369 104.9242,-12.429 106.0129,-15.7554"/>
</g>
<!-- 0 -->
<g id="node10" class="node">
<title>0</title>
<ellipse fill="none" stroke="#000000" cx="9.5" cy="-27.5" rx="9.5" ry="9.5"/>
<text text-anchor="middle" x="9.5" y="-23.8" font-family="Times,serif" font-size="14.00" fill="#000000">0</text>
</g>
<!-- 0&#45;&gt;1 -->
<g id="edge11" class="edge">
<title>0&#45;&gt;1</title>
<path fill="none" stroke="#000000" stroke-width=".75" d="M19.0803,-27.5C27.494,-27.5 39.8715,-27.5 49.5814,-27.5"/>
<polygon fill="#000000" stroke="#000000" stroke-width=".75" points="49.6592,-29.2501 54.6592,-27.5 49.6591,-25.7501 49.6592,-29.2501"/>
</g>
</g>
</svg>
