<?xml version="1.0" encoding="UTF-8" standalone="no"?>
<!DOCTYPE svg PUBLIC "-//W3C//DTD SVG 1.1//EN"
 "http://www.w3.org/Graphics/SVG/1.1/DTD/svg11.dtd">
<!-- Generated by graphviz version 2.40.1 (20161225.0304)
 -->
<!-- Title: %3 Pages: 1 -->
<svg width="357pt" height="102pt"
 viewBox="0.00 0.00 357.00 102.00" xmlns="http://www.w3.org/2000/svg" xmlns:xlink="http://www.w3.org/1999/xlink">
<g id="graph0" class="graph" transform="scale(1 1) rotate(0) translate(4 98)">
<title>%3</title>
<polygon fill="#ffffff" stroke="transparent" points="-4,4 -4,-98 353,-98 353,4 -4,4"/>
<!-- 9 -->
<g id="node1" class="node">
<title>9</title>
<ellipse fill="none" stroke="#000000" cx="339.5" cy="-28.5" rx="9.5" ry="9.5"/>
<text text-anchor="middle" x="339.5" y="-24.8" font-family="Times,serif" font-size="14.00" fill="#000000">9</text>
</g>
<!-- 8 -->
<g id="node2" class="node">
<title>8</title>
<ellipse fill="none" stroke="#000000" cx="284.5" cy="-10.5" rx="9.5" ry="9.5"/>
<text text-anchor="middle" x="284.5" y="-6.8" font-family="Times,serif" font-size="14.00" fill="#000000">8</text>
</g>
<!-- 8&#45;&gt;9 -->
<g id="edge1" class="edge">
<title>8&#45;&gt;9</title>
<path fill="none" stroke="#000000" stroke-width=".75" d="M293.5821,-13.4723C302.2081,-16.2954 315.3086,-20.5828 325.3119,-23.8566"/>
<polygon fill="#000000" stroke="#000000" stroke-width=".75" points="324.9242,-25.571 330.2205,-25.4631 326.0129,-22.2446 324.9242,-25.571"/>
</g>
<!-- 7 -->
<g id="node3" class="node">
<title>7</title>
<ellipse fill="none" stroke="#000000" cx="284.5" cy="-47.5" rx="9.5" ry="9.5"/>
<text text-anchor="middle" x="284.5" y="-43.8" font-family="Times,serif" font-size="14.00" fill="#000000">7</text>
</g>
<!-- 7&#45;&gt;9 -->
<g id="edge2" class="edge">
<title>7&#45;&gt;9</title>
<path fill="none" stroke="#000000" stroke-width=".75" d="M293.5821,-44.3625C302.2081,-41.3827 315.3086,-36.857 325.3119,-33.4014"/>
<polygon fill="#000000" stroke="#000000" stroke-width=".75" points="326.066,-34.9924 330.2205,-31.7056 324.9232,-31.6842 326.066,-34.9924"/>
</g>
<!-- 6 -->
<g id="node4" class="node">
<title>6</title>
<ellipse fill="none" stroke="#000000" cx="174.5" cy="-9.5" rx="9.5" ry="9.5"/>
<text text-anchor="middle" x="174.5" y="-5.8" font-family="Times,serif" font-size="14.00" fill="#000000">6</text>
</g>
<!-- 6&#45;&gt;8 -->
<g id="edge3" class="edge">
<title>6&#45;&gt;8</title>
<path fill="none" stroke="#000000" stroke-width=".75" d="M184.2618,-9.5887C203.6356,-9.7649 247.0377,-10.1594 269.8505,-10.3668"/>
<polygon fill="#000000" stroke="#000000" stroke-width=".75" points="269.9014,-12.1173 274.9172,-10.4129 269.9333,-8.6174 269.9014,-12.1173"/>
</g>
<!-- 5 -->
<g id="node5" class="node">
<title>5</title>
<ellipse fill="none" stroke="#000000" cx="229.5" cy="-47.5" rx="9.5" ry="9.5"/>
<text text-anchor="middle" x="229.5" y="-43.8" font-family="Times,serif" font-size="14.00" fill="#000000">5</text>
</g>
<!-- 5&#45;&gt;7 -->
<g id="edge4" class="edge">
<title>5&#45;&gt;7</title>
<path fill="none" stroke="#000000" stroke-width=".75" d="M239.0803,-47.5C247.494,-47.5 259.8715,-47.5 269.5814,-47.5"/>
<polygon fill="#000000" stroke="#000000" stroke-width=".75" points="269.6592,-49.2501 274.6592,-47.5 269.6591,-45.7501 269.6592,-49.2501"/>
</g>
<!-- 4 -->
<g id="node6" class="node">
<title>4</title>
<ellipse fill="none" stroke="#000000" cx="229.5" cy="-84.5" rx="9.5" ry="9.5"/>
<text text-anchor="middle" x="229.5" y="-80.8" font-family="Times,serif" font-size="14.00" fill="#000000">4</text>
</g>
<!-- 4&#45;&gt;7 -->
<g id="edge5" class="edge">
<title>4&#45;&gt;7</title>
<path fill="none" stroke="#000000" stroke-width=".75" d="M237.6154,-79.0405C246.7143,-72.9195 261.5735,-62.9233 272.1232,-55.8262"/>
<polygon fill="#000000" stroke="#000000" stroke-width=".75" points="273.1795,-57.2248 276.3513,-52.9819 271.2258,-54.3208 273.1795,-57.2248"/>
</g>
<!-- 3 -->
<g id="node7" class="node">
<title>3</title>
<ellipse fill="none" stroke="#000000" cx="174.5" cy="-47.5" rx="9.5" ry="9.5"/>
<text text-anchor="middle" x="174.5" y="-43.8" font-family="Times,serif" font-size="14.00" fill="#000000">3</text>
</g>
<!-- 3&#45;&gt;5 -->
<g id="edge6" class="edge">
<title>3&#45;&gt;5</title>
<path fill="none" stroke="#000000" stroke-width=".75" d="M184.0803,-47.5C192.494,-47.5 204.8715,-47.5 214.5814,-47.5"/>
<polygon fill="#000000" stroke="#000000" stroke-width=".75" points="214.6592,-49.2501 219.6592,-47.5 214.6591,-45.7501 214.6592,-49.2501"/>
</g>
<!-- 3&#45;&gt;4 -->
<g id="edge7" class="edge">
<title>3&#45;&gt;4</title>
<path fill="none" stroke="#000000" stroke-width=".75" d="M182.6154,-52.9595C191.7143,-59.0805 206.5735,-69.0767 217.1232,-76.1738"/>
<polygon fill="#000000" stroke="#000000" stroke-width=".75" points="216.2258,-77.6792 221.3513,-79.0181 218.1795,-74.7752 216.2258,-77.6792"/>
</g>
<!-- 2 -->
<g id="node8" class="node">
<title>2</title>
<ellipse fill="none" stroke="#000000" cx="119.5" cy="-47.5" rx="9.5" ry="9.5"/>
<text text-anchor="middle" x="119.5" y="-43.8" font-family="Times,serif" font-size="14.00" fill="#000000">2</text>
</g>
<!-- 2&#45;&gt;6 -->
<g id="edge8" class="edge">
<title>2&#45;&gt;6</title>
<path fill="none" stroke="#000000" stroke-width=".75" d="M127.6154,-41.893C136.7143,-35.6065 151.5735,-25.3401 162.1232,-18.0513"/>
<polygon fill="#000000" stroke="#000000" stroke-width=".75" points="163.2324,-19.412 166.3513,-15.13 161.2428,-16.5325 163.2324,-19.412"/>
</g>
<!-- 2&#45;&gt;3 -->
<g id="edge9" class="edge">
<title>2&#45;&gt;3</title>
<path fill="none" stroke="#000000" stroke-width=".75" d="M129.0803,-47.5C137.494,-47.5 149.8715,-47.5 159.5814,-47.5"/>
<polygon fill="#000000" stroke="#000000" stroke-width=".75" points="159.6592,-49.2501 164.6592,-47.5 159.6591,-45.7501 159.6592,-49.2501"/>
</g>
<!-- 1 -->
<g id="node9" class="node">
<title>1</title>
<ellipse fill="none" stroke="#000000" cx="64.5" cy="-9.5" rx="9.5" ry="9.5"/>
<text text-anchor="middle" x="64.5" y="-5.8" font-family="Times,serif" font-size="14.00" fill="#000000">1</text>
</g>
<!-- 1&#45;&gt;6 -->
<g id="edge10" class="edge">
<title>1&#45;&gt;6</title>
<path fill="none" stroke="#000000" stroke-width=".75" d="M74.2618,-9.5C93.6356,-9.5 137.0377,-9.5 159.8505,-9.5"/>
<polygon fill="#000000" stroke="#000000" stroke-width=".75" points="159.9172,-11.2501 164.9172,-9.5 159.9171,-7.7501 159.9172,-11.2501"/>
</g>
<!-- 1&#45;&gt;2 -->
<g id="edge11" class="edge">
<title>1&#45;&gt;2</title>
<path fill="none" stroke="#000000" stroke-width=".75" d="M72.6154,-15.107C81.7143,-21.3935 96.5735,-31.6599 107.1232,-38.9487"/>
<polygon fill="#000000" stroke="#000000" stroke-width=".75" points="106.2428,-40.4675 111.3513,-41.87 108.2324,-37.588 106.2428,-40.4675"/>
</g>
<!-- 0 -->
<g id="node10" class="node">
<title>0</title>
<ellipse fill="none" stroke="#000000" cx="9.5" cy="-28.5" rx="9.5" ry="9.5"/>
<text text-anchor="middle" x="9.5" y="-24.8" font-family="Times,serif" font-size="14.00" fill="#000000">0</text>
</g>
<!-- 0&#45;&gt;2 -->
<g id="edge12" class="edge">
<title>0&#45;&gt;2</title>
<path fill="none" stroke="#000000" stroke-width=".75" d="M18.8785,-30.1199C38.022,-33.4265 81.7238,-40.975 104.7227,-44.9476"/>
<polygon fill="#000000" stroke="#000000" stroke-width=".75" points="104.6067,-46.7034 109.8316,-45.83 105.2025,-43.2544 104.6067,-46.7034"/>
</g>
<!-- 0&#45;&gt;1 -->
<g id="edge13" class="edge">
<title>0&#45;&gt;1</title>
<path fill="none" stroke="#000000" stroke-width=".75" d="M18.5821,-25.3625C27.2081,-22.3827 40.3086,-17.857 50.3119,-14.4014"/>
<polygon fill="#000000" stroke="#000000" stroke-width=".75" points="51.066,-15.9924 55.2205,-12.7056 49.9232,-12.6842 51.066,-15.9924"/>
</g>
</g>
</svg>
