<?xml version="1.0" encoding="UTF-8" standalone="no"?>
<!DOCTYPE svg PUBLIC "-//W3C//DTD SVG 1.1//EN"
 "http://www.w3.org/Graphics/SVG/1.1/DTD/svg11.dtd">
<!-- Generated by graphviz version 2.40.1 (20161225.0304)
 -->
<!-- Title: %3 Pages: 1 -->
<svg width="467pt" height="65pt"
 viewBox="0.00 0.00 467.00 65.00" xmlns="http://www.w3.org/2000/svg" xmlns:xlink="http://www.w3.org/1999/xlink">
<g id="graph0" class="graph" transform="scale(1 1) rotate(0) translate(4 61)">
<title>%3</title>
<polygon fill="#ffffff" stroke="transparent" points="-4,4 -4,-61 463,-61 463,4 -4,4"/>
<!-- 9 -->
<g id="node1" class="node">
<title>9</title>
<ellipse fill="none" stroke="#000000" cx="449.5" cy="-28.5" rx="9.5" ry="9.5"/>
<text text-anchor="middle" x="449.5" y="-24.8" font-family="Times,serif" font-size="14.00" fill="#000000">9</text>
</g>
<!-- 8 -->
<g id="node2" class="node">
<title>8</title>
<ellipse fill="none" stroke="#000000" cx="394.5" cy="-47.5" rx="9.5" ry="9.5"/>
<text text-anchor="middle" x="394.5" y="-43.8" font-family="Times,serif" font-size="14.00" fill="#000000">8</text>
</g>
<!-- 8&#45;&gt;9 -->
<g id="edge1" class="edge">
<title>8&#45;&gt;9</title>
<path fill="none" stroke="#000000" stroke-width=".75" d="M403.5821,-44.3625C412.2081,-41.3827 425.3086,-36.857 435.3119,-33.4014"/>
<polygon fill="#000000" stroke="#000000" stroke-width=".75" points="436.066,-34.9924 440.2205,-31.7056 434.9232,-31.6842 436.066,-34.9924"/>
</g>
<!-- 7 -->
<g id="node3" class="node">
<title>7</title>
<ellipse fill="none" stroke="#000000" cx="394.5" cy="-10.5" rx="9.5" ry="9.5"/>
<text text-anchor="middle" x="394.5" y="-6.8" font-family="Times,serif" font-size="14.00" fill="#000000">7</text>
</g>
<!-- 7&#45;&gt;9 -->
<g id="edge2" class="edge">
<title>7&#45;&gt;9</title>
<path fill="none" stroke="#000000" stroke-width=".75" d="M403.5821,-13.4723C412.2081,-16.2954 425.3086,-20.5828 435.3119,-23.8566"/>
<polygon fill="#000000" stroke="#000000" stroke-width=".75" points="434.9242,-25.571 440.2205,-25.4631 436.0129,-22.2446 434.9242,-25.571"/>
</g>
<!-- 6 -->
<g id="node4" class="node">
<title>6</title>
<ellipse fill="none" stroke="#000000" cx="339.5" cy="-28.5" rx="9.5" ry="9.5"/>
<text text-anchor="middle" x="339.5" y="-24.8" font-family="Times,serif" font-size="14.00" fill="#000000">6</text>
</g>
<!-- 6&#45;&gt;8 -->
<g id="edge3" class="edge">
<title>6&#45;&gt;8</title>
<path fill="none" stroke="#000000" stroke-width=".75" d="M348.5821,-31.6375C357.2081,-34.6173 370.3086,-39.143 380.3119,-42.5986"/>
<polygon fill="#000000" stroke="#000000" stroke-width=".75" points="379.9232,-44.3158 385.2205,-44.2944 381.066,-41.0076 379.9232,-44.3158"/>
</g>
<!-- 6&#45;&gt;7 -->
<g id="edge4" class="edge">
<title>6&#45;&gt;7</title>
<path fill="none" stroke="#000000" stroke-width=".75" d="M348.5821,-25.5277C357.2081,-22.7046 370.3086,-18.4172 380.3119,-15.1434"/>
<polygon fill="#000000" stroke="#000000" stroke-width=".75" points="381.0129,-16.7554 385.2205,-13.5369 379.9242,-13.429 381.0129,-16.7554"/>
</g>
<!-- 5 -->
<g id="node5" class="node">
<title>5</title>
<ellipse fill="none" stroke="#000000" cx="284.5" cy="-9.5" rx="9.5" ry="9.5"/>
<text text-anchor="middle" x="284.5" y="-5.8" font-family="Times,serif" font-size="14.00" fill="#000000">5</text>
</g>
<!-- 5&#45;&gt;6 -->
<g id="edge5" class="edge">
<title>5&#45;&gt;6</title>
<path fill="none" stroke="#000000" stroke-width=".75" d="M293.5821,-12.6375C302.2081,-15.6173 315.3086,-20.143 325.3119,-23.5986"/>
<polygon fill="#000000" stroke="#000000" stroke-width=".75" points="324.9232,-25.3158 330.2205,-25.2944 326.066,-22.0076 324.9232,-25.3158"/>
</g>
<!-- 4 -->
<g id="node6" class="node">
<title>4</title>
<ellipse fill="none" stroke="#000000" cx="229.5" cy="-47.5" rx="9.5" ry="9.5"/>
<text text-anchor="middle" x="229.5" y="-43.8" font-family="Times,serif" font-size="14.00" fill="#000000">4</text>
</g>
<!-- 4&#45;&gt;6 -->
<g id="edge6" class="edge">
<title>4&#45;&gt;6</title>
<path fill="none" stroke="#000000" stroke-width=".75" d="M238.8785,-45.8801C258.022,-42.5735 301.7238,-35.025 324.7227,-31.0524"/>
<polygon fill="#000000" stroke="#000000" stroke-width=".75" points="325.2025,-32.7456 329.8316,-30.17 324.6067,-29.2966 325.2025,-32.7456"/>
</g>
<!-- 4&#45;&gt;5 -->
<g id="edge7" class="edge">
<title>4&#45;&gt;5</title>
<path fill="none" stroke="#000000" stroke-width=".75" d="M237.6154,-41.893C246.7143,-35.6065 261.5735,-25.3401 272.1232,-18.0513"/>
<polygon fill="#000000" stroke="#000000" stroke-width=".75" points="273.2324,-19.412 276.3513,-15.13 271.2428,-16.5325 273.2324,-19.412"/>
</g>
<!-- 3 -->
<g id="node7" class="node">
<title>3</title>
<ellipse fill="none" stroke="#000000" cx="174.5" cy="-9.5" rx="9.5" ry="9.5"/>
<text text-anchor="middle" x="174.5" y="-5.8" font-family="Times,serif" font-size="14.00" fill="#000000">3</text>
</g>
<!-- 3&#45;&gt;5 -->
<g id="edge8" class="edge">
<title>3&#45;&gt;5</title>
<path fill="none" stroke="#000000" stroke-width=".75" d="M184.2618,-9.5C203.6356,-9.5 247.0377,-9.5 269.8505,-9.5"/>
<polygon fill="#000000" stroke="#000000" stroke-width=".75" points="269.9172,-11.2501 274.9172,-9.5 269.9171,-7.7501 269.9172,-11.2501"/>
</g>
<!-- 3&#45;&gt;4 -->
<g id="edge9" class="edge">
<title>3&#45;&gt;4</title>
<path fill="none" stroke="#000000" stroke-width=".75" d="M182.6154,-15.107C191.7143,-21.3935 206.5735,-31.6599 217.1232,-38.9487"/>
<polygon fill="#000000" stroke="#000000" stroke-width=".75" points="216.2428,-40.4675 221.3513,-41.87 218.2324,-37.588 216.2428,-40.4675"/>
</g>
<!-- 2 -->
<g id="node8" class="node">
<title>2</title>
<ellipse fill="none" stroke="#000000" cx="119.5" cy="-47.5" rx="9.5" ry="9.5"/>
<text text-anchor="middle" x="119.5" y="-43.8" font-family="Times,serif" font-size="14.00" fill="#000000">2</text>
</g>
<!-- 2&#45;&gt;4 -->
<g id="edge10" class="edge">
<title>2&#45;&gt;4</title>
<path fill="none" stroke="#000000" stroke-width=".75" d="M129.2618,-47.5C148.6356,-47.5 192.0377,-47.5 214.8505,-47.5"/>
<polygon fill="#000000" stroke="#000000" stroke-width=".75" points="214.9172,-49.2501 219.9172,-47.5 214.9171,-45.7501 214.9172,-49.2501"/>
</g>
<!-- 2&#45;&gt;3 -->
<g id="edge11" class="edge">
<title>2&#45;&gt;3</title>
<path fill="none" stroke="#000000" stroke-width=".75" d="M127.6154,-41.893C136.7143,-35.6065 151.5735,-25.3401 162.1232,-18.0513"/>
<polygon fill="#000000" stroke="#000000" stroke-width=".75" points="163.2324,-19.412 166.3513,-15.13 161.2428,-16.5325 163.2324,-19.412"/>
</g>
<!-- 1 -->
<g id="node9" class="node">
<title>1</title>
<ellipse fill="none" stroke="#000000" cx="64.5" cy="-9.5" rx="9.5" ry="9.5"/>
<text text-anchor="middle" x="64.5" y="-5.8" font-family="Times,serif" font-size="14.00" fill="#000000">1</text>
</g>
<!-- 1&#45;&gt;3 -->
<g id="edge12" class="edge">
<title>1&#45;&gt;3</title>
<path fill="none" stroke="#000000" stroke-width=".75" d="M74.2618,-9.5C93.6356,-9.5 137.0377,-9.5 159.8505,-9.5"/>
<polygon fill="#000000" stroke="#000000" stroke-width=".75" points="159.9172,-11.2501 164.9172,-9.5 159.9171,-7.7501 159.9172,-11.2501"/>
</g>
<!-- 1&#45;&gt;2 -->
<g id="edge13" class="edge">
<title>1&#45;&gt;2</title>
<path fill="none" stroke="#000000" stroke-width=".75" d="M72.6154,-15.107C81.7143,-21.3935 96.5735,-31.6599 107.1232,-38.9487"/>
<polygon fill="#000000" stroke="#000000" stroke-width=".75" points="106.2428,-40.4675 111.3513,-41.87 108.2324,-37.588 106.2428,-40.4675"/>
</g>
<!-- 0 -->
<g id="node10" class="node">
<title>0</title>
<ellipse fill="none" stroke="#000000" cx="9.5" cy="-28.5" rx="9.5" ry="9.5"/>
<text text-anchor="middle" x="9.5" y="-24.8" font-family="Times,serif" font-size="14.00" fill="#000000">0</text>
</g>
<!-- 0&#45;&gt;2 -->
<g id="edge14" class="edge">
<title>0&#45;&gt;2</title>
<path fill="none" stroke="#000000" stroke-width=".75" d="M18.8785,-30.1199C38.022,-33.4265 81.7238,-40.975 104.7227,-44.9476"/>
<polygon fill="#000000" stroke="#000000" stroke-width=".75" points="104.6067,-46.7034 109.8316,-45.83 105.2025,-43.2544 104.6067,-46.7034"/>
</g>
<!-- 0&#45;&gt;1 -->
<g id="edge15" class="edge">
<title>0&#45;&gt;1</title>
<path fill="none" stroke="#000000" stroke-width=".75" d="M18.5821,-25.3625C27.2081,-22.3827 40.3086,-17.857 50.3119,-14.4014"/>
<polygon fill="#000000" stroke="#000000" stroke-width=".75" points="51.066,-15.9924 55.2205,-12.7056 49.9232,-12.6842 51.066,-15.9924"/>
</g>
</g>
</svg>
