<?xml version="1.0" encoding="UTF-8" standalone="no"?>
<!DOCTYPE svg PUBLIC "-//W3C//DTD SVG 1.1//EN"
 "http://www.w3.org/Graphics/SVG/1.1/DTD/svg11.dtd">
<!-- Generated by graphviz version 2.40.1 (20161225.0304)
 -->
<!-- Title: %3 Pages: 1 -->
<svg width="247pt" height="119pt"
 viewBox="0.00 0.00 247.00 119.00" xmlns="http://www.w3.org/2000/svg" xmlns:xlink="http://www.w3.org/1999/xlink">
<g id="graph0" class="graph" transform="scale(1 1) rotate(0) translate(4 115)">
<title>%3</title>
<polygon fill="#ffffff" stroke="transparent" points="-4,4 -4,-115 243,-115 243,4 -4,4"/>
<!-- 9 -->
<g id="node1" class="node">
<title>9</title>
<ellipse fill="none" stroke="#000000" cx="229.5" cy="-64.5" rx="9.5" ry="9.5"/>
<text text-anchor="middle" x="229.5" y="-60.8" font-family="Times,serif" font-size="14.00" fill="#000000">9</text>
</g>
<!-- 8 -->
<g id="node2" class="node">
<title>8</title>
<ellipse fill="none" stroke="#000000" cx="174.5" cy="-64.5" rx="9.5" ry="9.5"/>
<text text-anchor="middle" x="174.5" y="-60.8" font-family="Times,serif" font-size="14.00" fill="#000000">8</text>
</g>
<!-- 8&#45;&gt;9 -->
<g id="edge1" class="edge">
<title>8&#45;&gt;9</title>
<path fill="none" stroke="#000000" stroke-width=".75" d="M184.0803,-64.5C192.494,-64.5 204.8715,-64.5 214.5814,-64.5"/>
<polygon fill="#000000" stroke="#000000" stroke-width=".75" points="214.6592,-66.2501 219.6592,-64.5 214.6591,-62.7501 214.6592,-66.2501"/>
</g>
<!-- 7 -->
<g id="node3" class="node">
<title>7</title>
<ellipse fill="none" stroke="#000000" cx="174.5" cy="-27.5" rx="9.5" ry="9.5"/>
<text text-anchor="middle" x="174.5" y="-23.8" font-family="Times,serif" font-size="14.00" fill="#000000">7</text>
</g>
<!-- 7&#45;&gt;9 -->
<g id="edge2" class="edge">
<title>7&#45;&gt;9</title>
<path fill="none" stroke="#000000" stroke-width=".75" d="M182.6154,-32.9595C191.7143,-39.0805 206.5735,-49.0767 217.1232,-56.1738"/>
<polygon fill="#000000" stroke="#000000" stroke-width=".75" points="216.2258,-57.6792 221.3513,-59.0181 218.1795,-54.7752 216.2258,-57.6792"/>
</g>
<!-- 6 -->
<g id="node4" class="node">
<title>6</title>
<ellipse fill="none" stroke="#000000" cx="174.5" cy="-101.5" rx="9.5" ry="9.5"/>
<text text-anchor="middle" x="174.5" y="-97.8" font-family="Times,serif" font-size="14.00" fill="#000000">6</text>
</g>
<!-- 6&#45;&gt;9 -->
<g id="edge3" class="edge">
<title>6&#45;&gt;9</title>
<path fill="none" stroke="#000000" stroke-width=".75" d="M182.6154,-96.0405C191.7143,-89.9195 206.5735,-79.9233 217.1232,-72.8262"/>
<polygon fill="#000000" stroke="#000000" stroke-width=".75" points="218.1795,-74.2248 221.3513,-69.9819 216.2258,-71.3208 218.1795,-74.2248"/>
</g>
<!-- 5 -->
<g id="node5" class="node">
<title>5</title>
<ellipse fill="none" stroke="#000000" cx="119.5" cy="-83.5" rx="9.5" ry="9.5"/>
<text text-anchor="middle" x="119.5" y="-79.8" font-family="Times,serif" font-size="14.00" fill="#000000">5</text>
</g>
<!-- 5&#45;&gt;8 -->
<g id="edge4" class="edge">
<title>5&#45;&gt;8</title>
<path fill="none" stroke="#000000" stroke-width=".75" d="M128.5821,-80.3625C137.2081,-77.3827 150.3086,-72.857 160.3119,-69.4014"/>
<polygon fill="#000000" stroke="#000000" stroke-width=".75" points="161.066,-70.9924 165.2205,-67.7056 159.9232,-67.6842 161.066,-70.9924"/>
</g>
<!-- 4 -->
<g id="node6" class="node">
<title>4</title>
<ellipse fill="none" stroke="#000000" cx="119.5" cy="-9.5" rx="9.5" ry="9.5"/>
<text text-anchor="middle" x="119.5" y="-5.8" font-family="Times,serif" font-size="14.00" fill="#000000">4</text>
</g>
<!-- 4&#45;&gt;8 -->
<g id="edge5" class="edge">
<title>4&#45;&gt;8</title>
<path fill="none" stroke="#000000" stroke-width=".75" d="M126.2441,-16.2441C135.6455,-25.6455 152.7846,-42.7846 163.9026,-53.9026"/>
<polygon fill="#000000" stroke="#000000" stroke-width=".75" points="162.9277,-55.4026 167.7008,-57.7008 165.4026,-52.9277 162.9277,-55.4026"/>
</g>
<!-- 4&#45;&gt;7 -->
<g id="edge6" class="edge">
<title>4&#45;&gt;7</title>
<path fill="none" stroke="#000000" stroke-width=".75" d="M128.5821,-12.4723C137.2081,-15.2954 150.3086,-19.5828 160.3119,-22.8566"/>
<polygon fill="#000000" stroke="#000000" stroke-width=".75" points="159.9242,-24.571 165.2205,-24.4631 161.0129,-21.2446 159.9242,-24.571"/>
</g>
<!-- 3 -->
<g id="node7" class="node">
<title>3</title>
<ellipse fill="none" stroke="#000000" cx="119.5" cy="-46.5" rx="9.5" ry="9.5"/>
<text text-anchor="middle" x="119.5" y="-42.8" font-family="Times,serif" font-size="14.00" fill="#000000">3</text>
</g>
<!-- 3&#45;&gt;7 -->
<g id="edge7" class="edge">
<title>3&#45;&gt;7</title>
<path fill="none" stroke="#000000" stroke-width=".75" d="M128.5821,-43.3625C137.2081,-40.3827 150.3086,-35.857 160.3119,-32.4014"/>
<polygon fill="#000000" stroke="#000000" stroke-width=".75" points="161.066,-33.9924 165.2205,-30.7056 159.9232,-30.6842 161.066,-33.9924"/>
</g>
<!-- 3&#45;&gt;6 -->
<g id="edge8" class="edge">
<title>3&#45;&gt;6</title>
<path fill="none" stroke="#000000" stroke-width=".75" d="M126.2441,-53.2441C135.6455,-62.6455 152.7846,-79.7846 163.9026,-90.9026"/>
<polygon fill="#000000" stroke="#000000" stroke-width=".75" points="162.9277,-92.4026 167.7008,-94.7008 165.4026,-89.9277 162.9277,-92.4026"/>
</g>
<!-- 2 -->
<g id="node8" class="node">
<title>2</title>
<ellipse fill="none" stroke="#000000" cx="64.5" cy="-83.5" rx="9.5" ry="9.5"/>
<text text-anchor="middle" x="64.5" y="-79.8" font-family="Times,serif" font-size="14.00" fill="#000000">2</text>
</g>
<!-- 2&#45;&gt;6 -->
<g id="edge9" class="edge">
<title>2&#45;&gt;6</title>
<path fill="none" stroke="#000000" stroke-width=".75" d="M72.8988,-88.2017C81.7938,-92.8902 96.4026,-99.775 110,-102.5 126.7185,-105.8505 146.3647,-104.862 159.543,-103.5105"/>
<polygon fill="#000000" stroke="#000000" stroke-width=".75" points="159.9954,-105.2207 164.7674,-102.9207 159.6026,-101.7428 159.9954,-105.2207"/>
</g>
<!-- 2&#45;&gt;5 -->
<g id="edge10" class="edge">
<title>2&#45;&gt;5</title>
<path fill="none" stroke="#000000" stroke-width=".75" d="M74.0803,-83.5C82.494,-83.5 94.8715,-83.5 104.5814,-83.5"/>
<polygon fill="#000000" stroke="#000000" stroke-width=".75" points="104.6592,-85.2501 109.6592,-83.5 104.6591,-81.7501 104.6592,-85.2501"/>
</g>
<!-- 1 -->
<g id="node9" class="node">
<title>1</title>
<ellipse fill="none" stroke="#000000" cx="64.5" cy="-46.5" rx="9.5" ry="9.5"/>
<text text-anchor="middle" x="64.5" y="-42.8" font-family="Times,serif" font-size="14.00" fill="#000000">1</text>
</g>
<!-- 1&#45;&gt;4 -->
<g id="edge11" class="edge">
<title>1&#45;&gt;4</title>
<path fill="none" stroke="#000000" stroke-width=".75" d="M72.6154,-41.0405C81.7143,-34.9195 96.5735,-24.9233 107.1232,-17.8262"/>
<polygon fill="#000000" stroke="#000000" stroke-width=".75" points="108.1795,-19.2248 111.3513,-14.9819 106.2258,-16.3208 108.1795,-19.2248"/>
</g>
<!-- 1&#45;&gt;3 -->
<g id="edge12" class="edge">
<title>1&#45;&gt;3</title>
<path fill="none" stroke="#000000" stroke-width=".75" d="M74.0803,-46.5C82.494,-46.5 94.8715,-46.5 104.5814,-46.5"/>
<polygon fill="#000000" stroke="#000000" stroke-width=".75" points="104.6592,-48.2501 109.6592,-46.5 104.6591,-44.7501 104.6592,-48.2501"/>
</g>
<!-- 0 -->
<g id="node10" class="node">
<title>0</title>
<ellipse fill="none" stroke="#000000" cx="9.5" cy="-64.5" rx="9.5" ry="9.5"/>
<text text-anchor="middle" x="9.5" y="-60.8" font-family="Times,serif" font-size="14.00" fill="#000000">0</text>
</g>
<!-- 0&#45;&gt;2 -->
<g id="edge13" class="edge">
<title>0&#45;&gt;2</title>
<path fill="none" stroke="#000000" stroke-width=".75" d="M18.5821,-67.6375C27.2081,-70.6173 40.3086,-75.143 50.3119,-78.5986"/>
<polygon fill="#000000" stroke="#000000" stroke-width=".75" points="49.9232,-80.3158 55.2205,-80.2944 51.066,-77.0076 49.9232,-80.3158"/>
</g>
<!-- 0&#45;&gt;1 -->
<g id="edge14" class="edge">
<title>0&#45;&gt;1</title>
<path fill="none" stroke="#000000" stroke-width=".75" d="M18.5821,-61.5277C27.2081,-58.7046 40.3086,-54.4172 50.3119,-51.1434"/>
<polygon fill="#000000" stroke="#000000" stroke-width=".75" points="51.0129,-52.7554 55.2205,-49.5369 49.9242,-49.429 51.0129,-52.7554"/>
</g>
</g>
</svg>
