<?xml version="1.0" encoding="UTF-8" standalone="no"?>
<!DOCTYPE svg PUBLIC "-//W3C//DTD SVG 1.1//EN"
 "http://www.w3.org/Graphics/SVG/1.1/DTD/svg11.dtd">
<!-- Generated by graphviz version 2.40.1 (20161225.0304)
 -->
<!-- Title: %3 Pages: 1 -->
<svg width="412pt" height="103pt"
 viewBox="0.00 0.00 412.00 103.00" xmlns="http://www.w3.org/2000/svg" xmlns:xlink="http://www.w3.org/1999/xlink">
<g id="graph0" class="graph" transform="scale(1 1) rotate(0) translate(4 99)">
<title>%3</title>
<polygon fill="#ffffff" stroke="transparent" points="-4,4 -4,-99 408,-99 408,4 -4,4"/>
<!-- 9 -->
<g id="node1" class="node">
<title>9</title>
<ellipse fill="none" stroke="#000000" cx="394.5" cy="-47.5" rx="9.5" ry="9.5"/>
<text text-anchor="middle" x="394.5" y="-43.8" font-family="Times,serif" font-size="14.00" fill="#000000">9</text>
</g>
<!-- 8 -->
<g id="node2" class="node">
<title>8</title>
<ellipse fill="none" stroke="#000000" cx="339.5" cy="-47.5" rx="9.5" ry="9.5"/>
<text text-anchor="middle" x="339.5" y="-43.8" font-family="Times,serif" font-size="14.00" fill="#000000">8</text>
</g>
<!-- 8&#45;&gt;9 -->
<g id="edge1" class="edge">
<title>8&#45;&gt;9</title>
<path fill="none" stroke="#000000" stroke-width=".75" d="M349.0803,-47.5C357.494,-47.5 369.8715,-47.5 379.5814,-47.5"/>
<polygon fill="#000000" stroke="#000000" stroke-width=".75" points="379.6592,-49.2501 384.6592,-47.5 379.6591,-45.7501 379.6592,-49.2501"/>
</g>
<!-- 7 -->
<g id="node3" class="node">
<title>7</title>
<ellipse fill="none" stroke="#000000" cx="339.5" cy="-10.5" rx="9.5" ry="9.5"/>
<text text-anchor="middle" x="339.5" y="-6.8" font-family="Times,serif" font-size="14.00" fill="#000000">7</text>
</g>
<!-- 7&#45;&gt;9 -->
<g id="edge2" class="edge">
<title>7&#45;&gt;9</title>
<path fill="none" stroke="#000000" stroke-width=".75" d="M347.6154,-15.9595C356.7143,-22.0805 371.5735,-32.0767 382.1232,-39.1738"/>
<polygon fill="#000000" stroke="#000000" stroke-width=".75" points="381.2258,-40.6792 386.3513,-42.0181 383.1795,-37.7752 381.2258,-40.6792"/>
</g>
<!-- 6 -->
<g id="node4" class="node">
<title>6</title>
<ellipse fill="none" stroke="#000000" cx="229.5" cy="-85.5" rx="9.5" ry="9.5"/>
<text text-anchor="middle" x="229.5" y="-81.8" font-family="Times,serif" font-size="14.00" fill="#000000">6</text>
</g>
<!-- 6&#45;&gt;9 -->
<g id="edge3" class="edge">
<title>6&#45;&gt;9</title>
<path fill="none" stroke="#000000" stroke-width=".75" d="M239.2726,-84.7386C259.8844,-82.9611 309.1893,-77.8024 349,-66.5 360.2561,-63.3044 372.4636,-58.1046 381.3976,-53.9519"/>
<polygon fill="#000000" stroke="#000000" stroke-width=".75" points="382.2285,-55.4947 385.9973,-51.7719 380.7295,-52.332 382.2285,-55.4947"/>
</g>
<!-- 5 -->
<g id="node5" class="node">
<title>5</title>
<ellipse fill="none" stroke="#000000" cx="284.5" cy="-9.5" rx="9.5" ry="9.5"/>
<text text-anchor="middle" x="284.5" y="-5.8" font-family="Times,serif" font-size="14.00" fill="#000000">5</text>
</g>
<!-- 5&#45;&gt;8 -->
<g id="edge4" class="edge">
<title>5&#45;&gt;8</title>
<path fill="none" stroke="#000000" stroke-width=".75" d="M292.6154,-15.107C301.7143,-21.3935 316.5735,-31.6599 327.1232,-38.9487"/>
<polygon fill="#000000" stroke="#000000" stroke-width=".75" points="326.2428,-40.4675 331.3513,-41.87 328.2324,-37.588 326.2428,-40.4675"/>
</g>
<!-- 5&#45;&gt;7 -->
<g id="edge5" class="edge">
<title>5&#45;&gt;7</title>
<path fill="none" stroke="#000000" stroke-width=".75" d="M294.0803,-9.6742C302.494,-9.8272 314.8715,-10.0522 324.5814,-10.2288"/>
<polygon fill="#000000" stroke="#000000" stroke-width=".75" points="324.6281,-11.9798 329.6592,-10.3211 324.6918,-8.4804 324.6281,-11.9798"/>
</g>
<!-- 4 -->
<g id="node6" class="node">
<title>4</title>
<ellipse fill="none" stroke="#000000" cx="229.5" cy="-47.5" rx="9.5" ry="9.5"/>
<text text-anchor="middle" x="229.5" y="-43.8" font-family="Times,serif" font-size="14.00" fill="#000000">4</text>
</g>
<!-- 4&#45;&gt;8 -->
<g id="edge6" class="edge">
<title>4&#45;&gt;8</title>
<path fill="none" stroke="#000000" stroke-width=".75" d="M239.2618,-47.5C258.6356,-47.5 302.0377,-47.5 324.8505,-47.5"/>
<polygon fill="#000000" stroke="#000000" stroke-width=".75" points="324.9172,-49.2501 329.9172,-47.5 324.9171,-45.7501 324.9172,-49.2501"/>
</g>
<!-- 4&#45;&gt;5 -->
<g id="edge7" class="edge">
<title>4&#45;&gt;5</title>
<path fill="none" stroke="#000000" stroke-width=".75" d="M237.6154,-41.893C246.7143,-35.6065 261.5735,-25.3401 272.1232,-18.0513"/>
<polygon fill="#000000" stroke="#000000" stroke-width=".75" points="273.2324,-19.412 276.3513,-15.13 271.2428,-16.5325 273.2324,-19.412"/>
</g>
<!-- 3 -->
<g id="node7" class="node">
<title>3</title>
<ellipse fill="none" stroke="#000000" cx="174.5" cy="-47.5" rx="9.5" ry="9.5"/>
<text text-anchor="middle" x="174.5" y="-43.8" font-family="Times,serif" font-size="14.00" fill="#000000">3</text>
</g>
<!-- 3&#45;&gt;6 -->
<g id="edge8" class="edge">
<title>3&#45;&gt;6</title>
<path fill="none" stroke="#000000" stroke-width=".75" d="M182.6154,-53.107C191.7143,-59.3935 206.5735,-69.6599 217.1232,-76.9487"/>
<polygon fill="#000000" stroke="#000000" stroke-width=".75" points="216.2428,-78.4675 221.3513,-79.87 218.2324,-75.588 216.2428,-78.4675"/>
</g>
<!-- 3&#45;&gt;4 -->
<g id="edge9" class="edge">
<title>3&#45;&gt;4</title>
<path fill="none" stroke="#000000" stroke-width=".75" d="M184.0803,-47.5C192.494,-47.5 204.8715,-47.5 214.5814,-47.5"/>
<polygon fill="#000000" stroke="#000000" stroke-width=".75" points="214.6592,-49.2501 219.6592,-47.5 214.6591,-45.7501 214.6592,-49.2501"/>
</g>
<!-- 2 -->
<g id="node8" class="node">
<title>2</title>
<ellipse fill="none" stroke="#000000" cx="119.5" cy="-85.5" rx="9.5" ry="9.5"/>
<text text-anchor="middle" x="119.5" y="-81.8" font-family="Times,serif" font-size="14.00" fill="#000000">2</text>
</g>
<!-- 2&#45;&gt;6 -->
<g id="edge10" class="edge">
<title>2&#45;&gt;6</title>
<path fill="none" stroke="#000000" stroke-width=".75" d="M129.2618,-85.5C148.6356,-85.5 192.0377,-85.5 214.8505,-85.5"/>
<polygon fill="#000000" stroke="#000000" stroke-width=".75" points="214.9172,-87.2501 219.9172,-85.5 214.9171,-83.7501 214.9172,-87.2501"/>
</g>
<!-- 2&#45;&gt;3 -->
<g id="edge11" class="edge">
<title>2&#45;&gt;3</title>
<path fill="none" stroke="#000000" stroke-width=".75" d="M127.6154,-79.893C136.7143,-73.6065 151.5735,-63.3401 162.1232,-56.0513"/>
<polygon fill="#000000" stroke="#000000" stroke-width=".75" points="163.2324,-57.412 166.3513,-53.13 161.2428,-54.5325 163.2324,-57.412"/>
</g>
<!-- 1 -->
<g id="node9" class="node">
<title>1</title>
<ellipse fill="none" stroke="#000000" cx="64.5" cy="-47.5" rx="9.5" ry="9.5"/>
<text text-anchor="middle" x="64.5" y="-43.8" font-family="Times,serif" font-size="14.00" fill="#000000">1</text>
</g>
<!-- 1&#45;&gt;3 -->
<g id="edge12" class="edge">
<title>1&#45;&gt;3</title>
<path fill="none" stroke="#000000" stroke-width=".75" d="M74.2618,-47.5C93.6356,-47.5 137.0377,-47.5 159.8505,-47.5"/>
<polygon fill="#000000" stroke="#000000" stroke-width=".75" points="159.9172,-49.2501 164.9172,-47.5 159.9171,-45.7501 159.9172,-49.2501"/>
</g>
<!-- 1&#45;&gt;2 -->
<g id="edge13" class="edge">
<title>1&#45;&gt;2</title>
<path fill="none" stroke="#000000" stroke-width=".75" d="M72.6154,-53.107C81.7143,-59.3935 96.5735,-69.6599 107.1232,-76.9487"/>
<polygon fill="#000000" stroke="#000000" stroke-width=".75" points="106.2428,-78.4675 111.3513,-79.87 108.2324,-75.588 106.2428,-78.4675"/>
</g>
<!-- 0 -->
<g id="node10" class="node">
<title>0</title>
<ellipse fill="none" stroke="#000000" cx="9.5" cy="-66.5" rx="9.5" ry="9.5"/>
<text text-anchor="middle" x="9.5" y="-62.8" font-family="Times,serif" font-size="14.00" fill="#000000">0</text>
</g>
<!-- 0&#45;&gt;2 -->
<g id="edge14" class="edge">
<title>0&#45;&gt;2</title>
<path fill="none" stroke="#000000" stroke-width=".75" d="M18.8785,-68.1199C38.022,-71.4265 81.7238,-78.975 104.7227,-82.9476"/>
<polygon fill="#000000" stroke="#000000" stroke-width=".75" points="104.6067,-84.7034 109.8316,-83.83 105.2025,-81.2544 104.6067,-84.7034"/>
</g>
<!-- 0&#45;&gt;1 -->
<g id="edge15" class="edge">
<title>0&#45;&gt;1</title>
<path fill="none" stroke="#000000" stroke-width=".75" d="M18.5821,-63.3625C27.2081,-60.3827 40.3086,-55.857 50.3119,-52.4014"/>
<polygon fill="#000000" stroke="#000000" stroke-width=".75" points="51.066,-53.9924 55.2205,-50.7056 49.9232,-50.6842 51.066,-53.9924"/>
</g>
</g>
</svg>
