<?xml version="1.0" encoding="UTF-8" standalone="no"?>
<!DOCTYPE svg PUBLIC "-//W3C//DTD SVG 1.1//EN"
 "http://www.w3.org/Graphics/SVG/1.1/DTD/svg11.dtd">
<!-- Generated by graphviz version 2.40.1 (20161225.0304)
 -->
<!-- Title: %3 Pages: 1 -->
<svg width="302pt" height="102pt"
 viewBox="0.00 0.00 302.00 102.00" xmlns="http://www.w3.org/2000/svg" xmlns:xlink="http://www.w3.org/1999/xlink">
<g id="graph0" class="graph" transform="scale(1 1) rotate(0) translate(4 98)">
<title>%3</title>
<polygon fill="#ffffff" stroke="transparent" points="-4,4 -4,-98 298,-98 298,4 -4,4"/>
<!-- 8 -->
<g id="node1" class="node">
<title>8</title>
<ellipse fill="none" stroke="#000000" cx="284.5" cy="-47.5" rx="9.5" ry="9.5"/>
<text text-anchor="middle" x="284.5" y="-43.8" font-family="Times,serif" font-size="14.00" fill="#000000">8</text>
</g>
<!-- 7 -->
<g id="node2" class="node">
<title>7</title>
<ellipse fill="none" stroke="#000000" cx="229.5" cy="-47.5" rx="9.5" ry="9.5"/>
<text text-anchor="middle" x="229.5" y="-43.8" font-family="Times,serif" font-size="14.00" fill="#000000">7</text>
</g>
<!-- 7&#45;&gt;8 -->
<g id="edge1" class="edge">
<title>7&#45;&gt;8</title>
<path fill="none" stroke="#000000" stroke-width=".75" d="M239.0803,-47.5C247.494,-47.5 259.8715,-47.5 269.5814,-47.5"/>
<polygon fill="#000000" stroke="#000000" stroke-width=".75" points="269.6592,-49.2501 274.6592,-47.5 269.6591,-45.7501 269.6592,-49.2501"/>
</g>
<!-- 6 -->
<g id="node3" class="node">
<title>6</title>
<ellipse fill="none" stroke="#000000" cx="229.5" cy="-84.5" rx="9.5" ry="9.5"/>
<text text-anchor="middle" x="229.5" y="-80.8" font-family="Times,serif" font-size="14.00" fill="#000000">6</text>
</g>
<!-- 6&#45;&gt;8 -->
<g id="edge2" class="edge">
<title>6&#45;&gt;8</title>
<path fill="none" stroke="#000000" stroke-width=".75" d="M237.6154,-79.0405C246.7143,-72.9195 261.5735,-62.9233 272.1232,-55.8262"/>
<polygon fill="#000000" stroke="#000000" stroke-width=".75" points="273.1795,-57.2248 276.3513,-52.9819 271.2258,-54.3208 273.1795,-57.2248"/>
</g>
<!-- 5 -->
<g id="node4" class="node">
<title>5</title>
<ellipse fill="none" stroke="#000000" cx="119.5" cy="-9.5" rx="9.5" ry="9.5"/>
<text text-anchor="middle" x="119.5" y="-5.8" font-family="Times,serif" font-size="14.00" fill="#000000">5</text>
</g>
<!-- 5&#45;&gt;8 -->
<g id="edge3" class="edge">
<title>5&#45;&gt;8</title>
<path fill="none" stroke="#000000" stroke-width=".75" d="M129.2726,-10.2614C149.8844,-12.0389 199.1893,-17.1976 239,-28.5 250.2561,-31.6956 262.4636,-36.8954 271.3976,-41.0481"/>
<polygon fill="#000000" stroke="#000000" stroke-width=".75" points="270.7295,-42.668 275.9973,-43.2281 272.2285,-39.5053 270.7295,-42.668"/>
</g>
<!-- 4 -->
<g id="node5" class="node">
<title>4</title>
<ellipse fill="none" stroke="#000000" cx="174.5" cy="-47.5" rx="9.5" ry="9.5"/>
<text text-anchor="middle" x="174.5" y="-43.8" font-family="Times,serif" font-size="14.00" fill="#000000">4</text>
</g>
<!-- 4&#45;&gt;7 -->
<g id="edge4" class="edge">
<title>4&#45;&gt;7</title>
<path fill="none" stroke="#000000" stroke-width=".75" d="M184.0803,-47.5C192.494,-47.5 204.8715,-47.5 214.5814,-47.5"/>
<polygon fill="#000000" stroke="#000000" stroke-width=".75" points="214.6592,-49.2501 219.6592,-47.5 214.6591,-45.7501 214.6592,-49.2501"/>
</g>
<!-- 4&#45;&gt;6 -->
<g id="edge5" class="edge">
<title>4&#45;&gt;6</title>
<path fill="none" stroke="#000000" stroke-width=".75" d="M182.6154,-52.9595C191.7143,-59.0805 206.5735,-69.0767 217.1232,-76.1738"/>
<polygon fill="#000000" stroke="#000000" stroke-width=".75" points="216.2258,-77.6792 221.3513,-79.0181 218.1795,-74.7752 216.2258,-77.6792"/>
</g>
<!-- 3 -->
<g id="node6" class="node">
<title>3</title>
<ellipse fill="none" stroke="#000000" cx="119.5" cy="-46.5" rx="9.5" ry="9.5"/>
<text text-anchor="middle" x="119.5" y="-42.8" font-family="Times,serif" font-size="14.00" fill="#000000">3</text>
</g>
<!-- 3&#45;&gt;4 -->
<g id="edge6" class="edge">
<title>3&#45;&gt;4</title>
<path fill="none" stroke="#000000" stroke-width=".75" d="M129.0803,-46.6742C137.494,-46.8272 149.8715,-47.0522 159.5814,-47.2288"/>
<polygon fill="#000000" stroke="#000000" stroke-width=".75" points="159.6281,-48.9798 164.6592,-47.3211 159.6918,-45.4804 159.6281,-48.9798"/>
</g>
<!-- 2 -->
<g id="node7" class="node">
<title>2</title>
<ellipse fill="none" stroke="#000000" cx="64.5" cy="-46.5" rx="9.5" ry="9.5"/>
<text text-anchor="middle" x="64.5" y="-42.8" font-family="Times,serif" font-size="14.00" fill="#000000">2</text>
</g>
<!-- 2&#45;&gt;5 -->
<g id="edge7" class="edge">
<title>2&#45;&gt;5</title>
<path fill="none" stroke="#000000" stroke-width=".75" d="M72.6154,-41.0405C81.7143,-34.9195 96.5735,-24.9233 107.1232,-17.8262"/>
<polygon fill="#000000" stroke="#000000" stroke-width=".75" points="108.1795,-19.2248 111.3513,-14.9819 106.2258,-16.3208 108.1795,-19.2248"/>
</g>
<!-- 2&#45;&gt;3 -->
<g id="edge8" class="edge">
<title>2&#45;&gt;3</title>
<path fill="none" stroke="#000000" stroke-width=".75" d="M74.0803,-46.5C82.494,-46.5 94.8715,-46.5 104.5814,-46.5"/>
<polygon fill="#000000" stroke="#000000" stroke-width=".75" points="104.6592,-48.2501 109.6592,-46.5 104.6591,-44.7501 104.6592,-48.2501"/>
</g>
<!-- 1 -->
<g id="node8" class="node">
<title>1</title>
<ellipse fill="none" stroke="#000000" cx="64.5" cy="-9.5" rx="9.5" ry="9.5"/>
<text text-anchor="middle" x="64.5" y="-5.8" font-family="Times,serif" font-size="14.00" fill="#000000">1</text>
</g>
<!-- 1&#45;&gt;5 -->
<g id="edge9" class="edge">
<title>1&#45;&gt;5</title>
<path fill="none" stroke="#000000" stroke-width=".75" d="M74.0803,-9.5C82.494,-9.5 94.8715,-9.5 104.5814,-9.5"/>
<polygon fill="#000000" stroke="#000000" stroke-width=".75" points="104.6592,-11.2501 109.6592,-9.5 104.6591,-7.7501 104.6592,-11.2501"/>
</g>
<!-- 1&#45;&gt;3 -->
<g id="edge10" class="edge">
<title>1&#45;&gt;3</title>
<path fill="none" stroke="#000000" stroke-width=".75" d="M72.6154,-14.9595C81.7143,-21.0805 96.5735,-31.0767 107.1232,-38.1738"/>
<polygon fill="#000000" stroke="#000000" stroke-width=".75" points="106.2258,-39.6792 111.3513,-41.0181 108.1795,-36.7752 106.2258,-39.6792"/>
</g>
<!-- 0 -->
<g id="node9" class="node">
<title>0</title>
<ellipse fill="none" stroke="#000000" cx="9.5" cy="-27.5" rx="9.5" ry="9.5"/>
<text text-anchor="middle" x="9.5" y="-23.8" font-family="Times,serif" font-size="14.00" fill="#000000">0</text>
</g>
<!-- 0&#45;&gt;2 -->
<g id="edge11" class="edge">
<title>0&#45;&gt;2</title>
<path fill="none" stroke="#000000" stroke-width=".75" d="M18.5821,-30.6375C27.2081,-33.6173 40.3086,-38.143 50.3119,-41.5986"/>
<polygon fill="#000000" stroke="#000000" stroke-width=".75" points="49.9232,-43.3158 55.2205,-43.2944 51.066,-40.0076 49.9232,-43.3158"/>
</g>
<!-- 0&#45;&gt;1 -->
<g id="edge12" class="edge">
<title>0&#45;&gt;1</title>
<path fill="none" stroke="#000000" stroke-width=".75" d="M18.5821,-24.5277C27.2081,-21.7046 40.3086,-17.4172 50.3119,-14.1434"/>
<polygon fill="#000000" stroke="#000000" stroke-width=".75" points="51.0129,-15.7554 55.2205,-12.5369 49.9242,-12.429 51.0129,-15.7554"/>
</g>
</g>
</svg>
