<?xml version="1.0" encoding="UTF-8" standalone="no"?>
<!DOCTYPE svg PUBLIC "-//W3C//DTD SVG 1.1//EN"
 "http://www.w3.org/Graphics/SVG/1.1/DTD/svg11.dtd">
<!-- Generated by graphviz version 2.40.1 (20161225.0304)
 -->
<!-- Title: %3 Pages: 1 -->
<svg width="302pt" height="102pt"
 viewBox="0.00 0.00 302.00 102.00" xmlns="http://www.w3.org/2000/svg" xmlns:xlink="http://www.w3.org/1999/xlink">
<g id="graph0" class="graph" transform="scale(1 1) rotate(0) translate(4 98)">
<title>%3</title>
<polygon fill="#ffffff" stroke="transparent" points="-4,4 -4,-98 298,-98 298,4 -4,4"/>
<!-- 8 -->
<g id="node1" class="node">
<title>8</title>
<ellipse fill="none" stroke="#000000" cx="284.5" cy="-46.5" rx="9.5" ry="9.5"/>
<text text-anchor="middle" x="284.5" y="-42.8" font-family="Times,serif" font-size="14.00" fill="#000000">8</text>
</g>
<!-- 7 -->
<g id="node2" class="node">
<title>7</title>
<ellipse fill="none" stroke="#000000" cx="229.5" cy="-83.5" rx="9.5" ry="9.5"/>
<text text-anchor="middle" x="229.5" y="-79.8" font-family="Times,serif" font-size="14.00" fill="#000000">7</text>
</g>
<!-- 7&#45;&gt;8 -->
<g id="edge1" class="edge">
<title>7&#45;&gt;8</title>
<path fill="none" stroke="#000000" stroke-width=".75" d="M237.6154,-78.0405C246.7143,-71.9195 261.5735,-61.9233 272.1232,-54.8262"/>
<polygon fill="#000000" stroke="#000000" stroke-width=".75" points="273.1795,-56.2248 276.3513,-51.9819 271.2258,-53.3208 273.1795,-56.2248"/>
</g>
<!-- 6 -->
<g id="node3" class="node">
<title>6</title>
<ellipse fill="none" stroke="#000000" cx="229.5" cy="-46.5" rx="9.5" ry="9.5"/>
<text text-anchor="middle" x="229.5" y="-42.8" font-family="Times,serif" font-size="14.00" fill="#000000">6</text>
</g>
<!-- 6&#45;&gt;8 -->
<g id="edge2" class="edge">
<title>6&#45;&gt;8</title>
<path fill="none" stroke="#000000" stroke-width=".75" d="M239.0803,-46.5C247.494,-46.5 259.8715,-46.5 269.5814,-46.5"/>
<polygon fill="#000000" stroke="#000000" stroke-width=".75" points="269.6592,-48.2501 274.6592,-46.5 269.6591,-44.7501 269.6592,-48.2501"/>
</g>
<!-- 5 -->
<g id="node4" class="node">
<title>5</title>
<ellipse fill="none" stroke="#000000" cx="229.5" cy="-9.5" rx="9.5" ry="9.5"/>
<text text-anchor="middle" x="229.5" y="-5.8" font-family="Times,serif" font-size="14.00" fill="#000000">5</text>
</g>
<!-- 5&#45;&gt;8 -->
<g id="edge3" class="edge">
<title>5&#45;&gt;8</title>
<path fill="none" stroke="#000000" stroke-width=".75" d="M237.6154,-14.9595C246.7143,-21.0805 261.5735,-31.0767 272.1232,-38.1738"/>
<polygon fill="#000000" stroke="#000000" stroke-width=".75" points="271.2258,-39.6792 276.3513,-41.0181 273.1795,-36.7752 271.2258,-39.6792"/>
</g>
<!-- 4 -->
<g id="node5" class="node">
<title>4</title>
<ellipse fill="none" stroke="#000000" cx="174.5" cy="-83.5" rx="9.5" ry="9.5"/>
<text text-anchor="middle" x="174.5" y="-79.8" font-family="Times,serif" font-size="14.00" fill="#000000">4</text>
</g>
<!-- 4&#45;&gt;7 -->
<g id="edge4" class="edge">
<title>4&#45;&gt;7</title>
<path fill="none" stroke="#000000" stroke-width=".75" d="M184.0803,-83.5C192.494,-83.5 204.8715,-83.5 214.5814,-83.5"/>
<polygon fill="#000000" stroke="#000000" stroke-width=".75" points="214.6592,-85.2501 219.6592,-83.5 214.6591,-81.7501 214.6592,-85.2501"/>
</g>
<!-- 3 -->
<g id="node6" class="node">
<title>3</title>
<ellipse fill="none" stroke="#000000" cx="174.5" cy="-27.5" rx="9.5" ry="9.5"/>
<text text-anchor="middle" x="174.5" y="-23.8" font-family="Times,serif" font-size="14.00" fill="#000000">3</text>
</g>
<!-- 3&#45;&gt;6 -->
<g id="edge5" class="edge">
<title>3&#45;&gt;6</title>
<path fill="none" stroke="#000000" stroke-width=".75" d="M183.5821,-30.6375C192.2081,-33.6173 205.3086,-38.143 215.3119,-41.5986"/>
<polygon fill="#000000" stroke="#000000" stroke-width=".75" points="214.9232,-43.3158 220.2205,-43.2944 216.066,-40.0076 214.9232,-43.3158"/>
</g>
<!-- 3&#45;&gt;5 -->
<g id="edge6" class="edge">
<title>3&#45;&gt;5</title>
<path fill="none" stroke="#000000" stroke-width=".75" d="M183.5821,-24.5277C192.2081,-21.7046 205.3086,-17.4172 215.3119,-14.1434"/>
<polygon fill="#000000" stroke="#000000" stroke-width=".75" points="216.0129,-15.7554 220.2205,-12.5369 214.9242,-12.429 216.0129,-15.7554"/>
</g>
<!-- 2 -->
<g id="node7" class="node">
<title>2</title>
<ellipse fill="none" stroke="#000000" cx="119.5" cy="-65.5" rx="9.5" ry="9.5"/>
<text text-anchor="middle" x="119.5" y="-61.8" font-family="Times,serif" font-size="14.00" fill="#000000">2</text>
</g>
<!-- 2&#45;&gt;4 -->
<g id="edge7" class="edge">
<title>2&#45;&gt;4</title>
<path fill="none" stroke="#000000" stroke-width=".75" d="M128.5821,-68.4723C137.2081,-71.2954 150.3086,-75.5828 160.3119,-78.8566"/>
<polygon fill="#000000" stroke="#000000" stroke-width=".75" points="159.9242,-80.571 165.2205,-80.4631 161.0129,-77.2446 159.9242,-80.571"/>
</g>
<!-- 1 -->
<g id="node8" class="node">
<title>1</title>
<ellipse fill="none" stroke="#000000" cx="64.5" cy="-65.5" rx="9.5" ry="9.5"/>
<text text-anchor="middle" x="64.5" y="-61.8" font-family="Times,serif" font-size="14.00" fill="#000000">1</text>
</g>
<!-- 1&#45;&gt;3 -->
<g id="edge8" class="edge">
<title>1&#45;&gt;3</title>
<path fill="none" stroke="#000000" stroke-width=".75" d="M73.451,-61.4208C82.5457,-57.3575 97.0922,-51.0808 110,-46.5 127.0934,-40.4338 147.1975,-34.7321 160.361,-31.1871"/>
<polygon fill="#000000" stroke="#000000" stroke-width=".75" points="160.8325,-32.8726 165.2129,-29.8936 159.9308,-29.4908 160.8325,-32.8726"/>
</g>
<!-- 1&#45;&gt;2 -->
<g id="edge9" class="edge">
<title>1&#45;&gt;2</title>
<path fill="none" stroke="#000000" stroke-width=".75" d="M74.0803,-65.5C82.494,-65.5 94.8715,-65.5 104.5814,-65.5"/>
<polygon fill="#000000" stroke="#000000" stroke-width=".75" points="104.6592,-67.2501 109.6592,-65.5 104.6591,-63.7501 104.6592,-67.2501"/>
</g>
<!-- 0 -->
<g id="node9" class="node">
<title>0</title>
<ellipse fill="none" stroke="#000000" cx="9.5" cy="-84.5" rx="9.5" ry="9.5"/>
<text text-anchor="middle" x="9.5" y="-80.8" font-family="Times,serif" font-size="14.00" fill="#000000">0</text>
</g>
<!-- 0&#45;&gt;4 -->
<g id="edge10" class="edge">
<title>0&#45;&gt;4</title>
<path fill="none" stroke="#000000" stroke-width=".75" d="M19.1041,-84.5716C39.397,-84.707 88.1318,-84.949 129,-84.5 139.2068,-84.3879 150.6991,-84.1342 159.5803,-83.9105"/>
<polygon fill="#000000" stroke="#000000" stroke-width=".75" points="159.7849,-85.6559 164.7378,-83.7766 159.694,-82.157 159.7849,-85.6559"/>
</g>
<!-- 0&#45;&gt;1 -->
<g id="edge11" class="edge">
<title>0&#45;&gt;1</title>
<path fill="none" stroke="#000000" stroke-width=".75" d="M18.5821,-81.3625C27.2081,-78.3827 40.3086,-73.857 50.3119,-70.4014"/>
<polygon fill="#000000" stroke="#000000" stroke-width=".75" points="51.066,-71.9924 55.2205,-68.7056 49.9232,-68.6842 51.066,-71.9924"/>
</g>
</g>
</svg>
