<?xml version="1.0" encoding="UTF-8" standalone="no"?>
<!DOCTYPE svg PUBLIC "-//W3C//DTD SVG 1.1//EN"
 "http://www.w3.org/Graphics/SVG/1.1/DTD/svg11.dtd">
<!-- Generated by graphviz version 2.40.1 (20161225.0304)
 -->
<!-- Title: %3 Pages: 1 -->
<svg width="247pt" height="101pt"
 viewBox="0.00 0.00 247.00 101.00" xmlns="http://www.w3.org/2000/svg" xmlns:xlink="http://www.w3.org/1999/xlink">
<g id="graph0" class="graph" transform="scale(1 1) rotate(0) translate(4 97)">
<title>%3</title>
<polygon fill="#ffffff" stroke="transparent" points="-4,4 -4,-97 243,-97 243,4 -4,4"/>
<!-- 8 -->
<g id="node1" class="node">
<title>8</title>
<ellipse fill="none" stroke="#000000" cx="229.5" cy="-46.5" rx="9.5" ry="9.5"/>
<text text-anchor="middle" x="229.5" y="-42.8" font-family="Times,serif" font-size="14.00" fill="#000000">8</text>
</g>
<!-- 7 -->
<g id="node2" class="node">
<title>7</title>
<ellipse fill="none" stroke="#000000" cx="174.5" cy="-9.5" rx="9.5" ry="9.5"/>
<text text-anchor="middle" x="174.5" y="-5.8" font-family="Times,serif" font-size="14.00" fill="#000000">7</text>
</g>
<!-- 7&#45;&gt;8 -->
<g id="edge1" class="edge">
<title>7&#45;&gt;8</title>
<path fill="none" stroke="#000000" stroke-width=".75" d="M182.6154,-14.9595C191.7143,-21.0805 206.5735,-31.0767 217.1232,-38.1738"/>
<polygon fill="#000000" stroke="#000000" stroke-width=".75" points="216.2258,-39.6792 221.3513,-41.0181 218.1795,-36.7752 216.2258,-39.6792"/>
</g>
<!-- 6 -->
<g id="node3" class="node">
<title>6</title>
<ellipse fill="none" stroke="#000000" cx="174.5" cy="-46.5" rx="9.5" ry="9.5"/>
<text text-anchor="middle" x="174.5" y="-42.8" font-family="Times,serif" font-size="14.00" fill="#000000">6</text>
</g>
<!-- 6&#45;&gt;8 -->
<g id="edge2" class="edge">
<title>6&#45;&gt;8</title>
<path fill="none" stroke="#000000" stroke-width=".75" d="M184.0803,-46.5C192.494,-46.5 204.8715,-46.5 214.5814,-46.5"/>
<polygon fill="#000000" stroke="#000000" stroke-width=".75" points="214.6592,-48.2501 219.6592,-46.5 214.6591,-44.7501 214.6592,-48.2501"/>
</g>
<!-- 5 -->
<g id="node4" class="node">
<title>5</title>
<ellipse fill="none" stroke="#000000" cx="174.5" cy="-83.5" rx="9.5" ry="9.5"/>
<text text-anchor="middle" x="174.5" y="-79.8" font-family="Times,serif" font-size="14.00" fill="#000000">5</text>
</g>
<!-- 5&#45;&gt;8 -->
<g id="edge3" class="edge">
<title>5&#45;&gt;8</title>
<path fill="none" stroke="#000000" stroke-width=".75" d="M182.6154,-78.0405C191.7143,-71.9195 206.5735,-61.9233 217.1232,-54.8262"/>
<polygon fill="#000000" stroke="#000000" stroke-width=".75" points="218.1795,-56.2248 221.3513,-51.9819 216.2258,-53.3208 218.1795,-56.2248"/>
</g>
<!-- 4 -->
<g id="node5" class="node">
<title>4</title>
<ellipse fill="none" stroke="#000000" cx="119.5" cy="-9.5" rx="9.5" ry="9.5"/>
<text text-anchor="middle" x="119.5" y="-5.8" font-family="Times,serif" font-size="14.00" fill="#000000">4</text>
</g>
<!-- 4&#45;&gt;7 -->
<g id="edge4" class="edge">
<title>4&#45;&gt;7</title>
<path fill="none" stroke="#000000" stroke-width=".75" d="M129.0803,-9.5C137.494,-9.5 149.8715,-9.5 159.5814,-9.5"/>
<polygon fill="#000000" stroke="#000000" stroke-width=".75" points="159.6592,-11.2501 164.6592,-9.5 159.6591,-7.7501 159.6592,-11.2501"/>
</g>
<!-- 3 -->
<g id="node6" class="node">
<title>3</title>
<ellipse fill="none" stroke="#000000" cx="119.5" cy="-46.5" rx="9.5" ry="9.5"/>
<text text-anchor="middle" x="119.5" y="-42.8" font-family="Times,serif" font-size="14.00" fill="#000000">3</text>
</g>
<!-- 3&#45;&gt;6 -->
<g id="edge5" class="edge">
<title>3&#45;&gt;6</title>
<path fill="none" stroke="#000000" stroke-width=".75" d="M129.0803,-46.5C137.494,-46.5 149.8715,-46.5 159.5814,-46.5"/>
<polygon fill="#000000" stroke="#000000" stroke-width=".75" points="159.6592,-48.2501 164.6592,-46.5 159.6591,-44.7501 159.6592,-48.2501"/>
</g>
<!-- 2 -->
<g id="node7" class="node">
<title>2</title>
<ellipse fill="none" stroke="#000000" cx="119.5" cy="-83.5" rx="9.5" ry="9.5"/>
<text text-anchor="middle" x="119.5" y="-79.8" font-family="Times,serif" font-size="14.00" fill="#000000">2</text>
</g>
<!-- 2&#45;&gt;6 -->
<g id="edge6" class="edge">
<title>2&#45;&gt;6</title>
<path fill="none" stroke="#000000" stroke-width=".75" d="M127.6154,-78.0405C136.7143,-71.9195 151.5735,-61.9233 162.1232,-54.8262"/>
<polygon fill="#000000" stroke="#000000" stroke-width=".75" points="163.1795,-56.2248 166.3513,-51.9819 161.2258,-53.3208 163.1795,-56.2248"/>
</g>
<!-- 2&#45;&gt;5 -->
<g id="edge7" class="edge">
<title>2&#45;&gt;5</title>
<path fill="none" stroke="#000000" stroke-width=".75" d="M129.0803,-83.5C137.494,-83.5 149.8715,-83.5 159.5814,-83.5"/>
<polygon fill="#000000" stroke="#000000" stroke-width=".75" points="159.6592,-85.2501 164.6592,-83.5 159.6591,-81.7501 159.6592,-85.2501"/>
</g>
<!-- 1 -->
<g id="node8" class="node">
<title>1</title>
<ellipse fill="none" stroke="#000000" cx="64.5" cy="-45.5" rx="9.5" ry="9.5"/>
<text text-anchor="middle" x="64.5" y="-41.8" font-family="Times,serif" font-size="14.00" fill="#000000">1</text>
</g>
<!-- 1&#45;&gt;4 -->
<g id="edge8" class="edge">
<title>1&#45;&gt;4</title>
<path fill="none" stroke="#000000" stroke-width=".75" d="M72.6154,-40.1881C81.7143,-34.2325 96.5735,-24.5064 107.1232,-17.6012"/>
<polygon fill="#000000" stroke="#000000" stroke-width=".75" points="108.1262,-19.0363 111.3513,-14.8337 106.2093,-16.1078 108.1262,-19.0363"/>
</g>
<!-- 1&#45;&gt;3 -->
<g id="edge9" class="edge">
<title>1&#45;&gt;3</title>
<path fill="none" stroke="#000000" stroke-width=".75" d="M74.0803,-45.6742C82.494,-45.8272 94.8715,-46.0522 104.5814,-46.2288"/>
<polygon fill="#000000" stroke="#000000" stroke-width=".75" points="104.6281,-47.9798 109.6592,-46.3211 104.6918,-44.4804 104.6281,-47.9798"/>
</g>
<!-- 0 -->
<g id="node9" class="node">
<title>0</title>
<ellipse fill="none" stroke="#000000" cx="9.5" cy="-64.5" rx="9.5" ry="9.5"/>
<text text-anchor="middle" x="9.5" y="-60.8" font-family="Times,serif" font-size="14.00" fill="#000000">0</text>
</g>
<!-- 0&#45;&gt;2 -->
<g id="edge10" class="edge">
<title>0&#45;&gt;2</title>
<path fill="none" stroke="#000000" stroke-width=".75" d="M18.8785,-66.1199C38.022,-69.4265 81.7238,-76.975 104.7227,-80.9476"/>
<polygon fill="#000000" stroke="#000000" stroke-width=".75" points="104.6067,-82.7034 109.8316,-81.83 105.2025,-79.2544 104.6067,-82.7034"/>
</g>
<!-- 0&#45;&gt;1 -->
<g id="edge11" class="edge">
<title>0&#45;&gt;1</title>
<path fill="none" stroke="#000000" stroke-width=".75" d="M18.5821,-61.3625C27.2081,-58.3827 40.3086,-53.857 50.3119,-50.4014"/>
<polygon fill="#000000" stroke="#000000" stroke-width=".75" points="51.066,-51.9924 55.2205,-48.7056 49.9232,-48.6842 51.066,-51.9924"/>
</g>
</g>
</svg>
